<svg width="100" height="100" viewBox="0 0 100 100" fill="none" xmlns="http://www.w3.org/2000/svg">
<circle cx="50" cy="50" r="50" fill="#8499A6"/>
<path d="M54.7007 27.0441C54.4132 26.9233 54.0846 27.0594 53.9654 27.3461L52.7762 30.193C52.6566 30.4797 52.7919 30.8091 53.0786 30.9287C53.1496 30.9585 53.2229 30.9723 53.2951 30.9723C53.5151 30.9723 53.7241 30.8428 53.8143 30.6267L55.0035 27.7798C55.1227 27.4931 54.9874 27.1637 54.7007 27.0441V27.0441Z" fill="white"/>
<path d="M54.5943 32.7209C54.6908 32.9225 54.8924 33.0397 55.1018 33.0397C55.1834 33.0397 55.2662 33.0221 55.3446 32.9844L58.1268 31.6514C58.4069 31.5173 58.5253 31.1819 58.3908 30.9015C58.2566 30.6215 57.9198 30.5023 57.6409 30.638L54.8587 31.971C54.5786 32.1047 54.4602 32.4405 54.5943 32.7209V32.7209Z" fill="white"/>
<path d="M64.6986 45.0923C64.1739 42.9506 62.6326 37.7046 61.6804 35.7303C61.5651 35.4914 61.2984 35.3648 61.0403 35.4283L51.139 37.8548C50.8809 37.9183 50.7025 38.1529 50.7107 38.4188C50.7782 40.6064 51.8375 45.9724 52.3626 48.1166C54.0624 55.0517 57.7541 60.0202 61.0419 60.0202C61.107 60.0202 61.1713 60.0127 61.236 60.0088L63.6856 70.05L60.2524 70.8913C59.9508 70.9654 59.766 71.2697 59.8402 71.5717C59.9029 71.8282 60.1327 72 60.3857 72C60.43 72 60.4751 71.9949 60.5198 71.9839L68.4794 70.0335C68.781 69.9594 68.9657 69.655 68.8916 69.353C68.8175 69.0514 68.5104 68.8671 68.2119 68.9408L64.7783 69.7821L62.3287 59.7431C65.3804 58.3807 66.4318 52.1663 64.6986 45.0915V45.0923ZM60.8544 36.6315C61.1822 37.3935 61.5627 38.4669 61.9392 39.6204C58.7589 40.5025 57.2689 41.7198 55.8312 42.8996C54.9362 43.6341 54.082 44.3311 52.8265 44.9574C52.4046 42.8442 51.9724 40.3432 51.8598 38.8352L60.8544 36.6315ZM61.5282 58.8373C58.7761 59.5221 55.0797 54.4789 53.4545 47.8484C53.3423 47.3911 53.2054 46.782 53.0591 46.0925C54.5785 45.376 55.5797 44.5602 56.5438 43.7691C57.958 42.6086 59.3021 41.5109 62.2804 40.6927C62.8389 42.4847 63.3476 44.3045 63.6064 45.3602C65.2313 51.9914 64.2798 58.1634 61.5282 58.8371L61.5282 58.8373Z" fill="white"/>
<path d="M61.2055 46.4938C60.9039 46.568 60.7196 46.8727 60.7933 47.1743C61.5958 50.4464 61.4691 53.1918 61.1314 54.0173C61.0137 54.3044 61.151 54.6326 61.4385 54.7507C61.5083 54.7793 61.5805 54.7922 61.6515 54.7922C61.873 54.7922 62.0829 54.6605 62.1719 54.4432C62.6457 53.2874 62.7061 50.2526 61.886 46.906C61.8115 46.6048 61.5059 46.4197 61.2055 46.4938V46.4938Z" fill="white"/>
<path d="M32.815 60.8453C32.5146 60.7712 32.2091 60.9563 32.1354 61.2575C32.0616 61.5595 32.246 61.8639 32.5476 61.938L40.5067 63.8884C40.5514 63.8994 40.5965 63.9045 40.6408 63.9045C40.8938 63.9045 41.1236 63.7327 41.1864 63.4762C41.2601 63.1742 41.0758 62.8699 40.7742 62.7957L37.341 61.9545L39.7903 51.9133C39.855 51.9172 39.9193 51.9251 39.9848 51.9251C43.2721 51.9251 46.9643 46.9556 48.6636 40.0205C49.1888 37.8779 50.2476 32.5131 50.3155 30.3227C50.3237 30.0568 50.1453 29.8226 49.8872 29.7587L39.9859 27.3322C39.729 27.269 39.4612 27.3953 39.3459 27.6342C38.3936 29.6077 36.8527 34.854 36.3276 36.9962C34.5941 44.0702 35.6456 50.2854 38.6973 51.6478L36.2484 61.6864L32.815 60.8453ZM40.1715 28.5361L49.1669 30.7402C49.0731 31.9952 48.7578 33.9374 48.4119 35.7708C47.1906 35.1457 46.3557 34.4526 45.4803 33.7243C44.0613 32.5434 42.5917 31.3241 39.455 30.4299C39.706 29.7052 39.9511 29.049 40.1715 28.5361H40.1715ZM37.4199 37.2648C37.7324 35.9898 38.4078 33.6045 39.0965 31.4972C42.0375 32.3263 43.3648 33.4264 44.7609 34.5885C45.7104 35.3788 46.6968 36.1933 48.1903 36.9134C47.9632 38.0476 47.7396 39.0681 47.5722 39.7524C45.9473 46.3829 42.254 51.4221 39.4985 50.7414C36.7465 50.0668 35.7945 43.8949 37.4198 37.2645L37.4199 37.2648Z" fill="white"/>
<path d="M39.7951 46.7592C40.0822 46.6415 40.2198 46.3132 40.1022 46.0261C39.6845 45.0065 39.5241 41.628 40.5077 37.6148C40.5814 37.3128 40.3971 37.0085 40.0955 36.9343C39.7962 36.8602 39.4895 37.0453 39.4158 37.3465C38.4228 41.3987 38.4922 45.0626 39.0621 46.4518C39.1511 46.6698 39.3609 46.8008 39.5825 46.8008C39.6531 46.8016 39.7253 46.7887 39.7951 46.7593L39.7951 46.7592Z" fill="white"/>
<path d="M49.1567 63.5933C49.2237 63.5933 49.2904 63.5811 49.3539 63.5576C49.5222 63.4944 53.4861 61.9767 54.2257 58.9971C54.6669 57.2197 53.6786 55.902 52.5032 55.3843C51.5039 54.9435 50.1611 55.0042 49.1567 55.9992C48.1526 55.005 46.8098 54.9434 45.8105 55.3843C44.6351 55.902 43.6459 57.2197 44.0872 58.9971C44.8272 61.9771 48.7908 63.4944 48.959 63.5576C49.0229 63.5811 49.0896 63.5933 49.1566 63.5933H49.1567ZM45.1787 58.7258C44.8755 57.5053 45.5736 56.7166 46.2635 56.413C46.4929 56.3119 46.7639 56.2479 47.0491 56.2479C47.6087 56.2479 48.2233 56.495 48.6876 57.1947C48.7919 57.3512 48.9676 57.4457 49.1559 57.4457C49.3442 57.4457 49.5199 57.3512 49.6242 57.1947C50.3258 56.1382 51.3695 56.1146 52.0487 56.4135C52.7386 56.717 53.4362 57.5057 53.1331 58.7262C52.619 60.7993 49.9132 62.0971 49.1551 62.4238C48.3974 62.0975 45.6952 60.8056 45.1787 58.7258H45.1787Z" fill="white"/>
<path d="M72.8642 32.0551C73.3446 30.0977 72.2167 28.6191 70.9648 28.0732C69.8682 27.5955 68.392 27.679 67.3009 28.8039C66.2099 27.6787 64.7336 27.5947 63.6371 28.0732C62.3855 28.6191 61.2572 30.0977 61.7377 32.0551C62.5499 35.3633 66.9158 37.0532 67.1017 37.1234C67.166 37.1481 67.2335 37.1603 67.301 37.1603C67.3684 37.1603 67.4359 37.1481 67.5002 37.1242C67.6857 37.0536 72.0528 35.3633 72.8642 32.0551L72.8642 32.0551ZM67.3009 35.99C66.4836 35.6358 63.4131 34.1632 62.8299 31.7873C62.5028 30.4546 63.2253 29.4796 64.0862 29.1046C64.3426 28.9925 64.6442 28.9223 64.9623 28.9223C65.5996 28.9223 66.3021 29.2062 66.8311 30.0118C66.935 30.1699 67.1115 30.2656 67.3009 30.2656C67.4904 30.2656 67.6669 30.1699 67.7708 30.0118C68.5638 28.8043 69.7455 28.7681 70.5154 29.1047C71.3766 29.4796 72.099 30.455 71.772 31.7873C71.1892 34.1632 68.1183 35.6359 67.301 35.99L67.3009 35.99Z" fill="white"/>
<path d="M31.8572 35.0311C31.9227 35.057 31.9921 35.0695 32.0615 35.0695C32.1306 35.0695 32.2 35.057 32.2659 35.0311C32.3965 34.9801 35.4678 33.7572 36.0435 31.344C36.3498 30.0616 35.756 28.8226 34.6002 28.3328C33.8421 28.0112 32.8381 28.061 32.0615 28.7764C31.2862 28.061 30.2821 28.0104 29.5233 28.332C28.3675 28.8222 27.7741 30.0604 28.0796 31.3437C28.6558 33.7572 31.7266 34.9801 31.8572 35.0311L31.8572 35.0311ZM29.9617 29.3682C30.1123 29.3047 30.2829 29.2655 30.4606 29.2655C30.8453 29.2655 31.2646 29.4479 31.5874 29.9534C31.6905 30.1154 31.8694 30.213 32.0612 30.213C32.253 30.213 32.4318 30.1154 32.5349 29.9534C33.0075 29.2137 33.6848 29.167 34.1605 29.3682C34.7018 29.5977 35.1555 30.2169 34.9489 31.0829C34.5829 32.6171 32.6918 33.6035 32.0607 33.8941C31.4297 33.6035 29.5389 32.6171 29.1726 31.0829C28.9666 30.2169 29.4204 29.5977 29.9616 29.3682L29.9617 29.3682Z" fill="white"/>
<path d="M48.527 68.1205C48.8333 66.8381 48.2396 65.5999 47.0842 65.1092C46.3249 64.7869 45.3205 64.8378 44.5451 65.5528C43.7697 64.8378 42.7665 64.7869 42.0065 65.1092C40.851 65.5995 40.2573 66.8377 40.5636 68.1205C41.1397 70.534 44.2106 71.7569 44.3408 71.8079C44.4063 71.8338 44.4757 71.8464 44.5451 71.8464C44.6142 71.8464 44.6836 71.8338 44.7495 71.8079C44.8801 71.757 47.9514 70.534 48.5271 68.1205H48.527ZM44.542 70.6725C43.6941 70.2909 41.9931 69.2653 41.6575 67.8589C41.4512 66.9938 41.9045 66.3741 42.4458 66.1447C42.5964 66.0804 42.767 66.0415 42.945 66.0415C43.3298 66.0415 43.7486 66.2239 44.0714 66.7295C44.1746 66.8914 44.3534 66.9891 44.5452 66.9891C44.737 66.9891 44.9158 66.8914 45.019 66.7295C45.4908 65.9906 46.1693 65.9411 46.6446 66.1447C47.1858 66.3741 47.6396 66.9934 47.4329 67.859C47.067 69.3963 45.1696 70.3843 44.5421 70.6725L44.542 70.6725Z" fill="white"/>
</svg>
