<svg width="100" height="100" viewBox="0 0 100 100" fill="none" xmlns="http://www.w3.org/2000/svg">
<circle cx="50" cy="50" r="50" fill="#8499A6"/>
<path d="M25.0005 55.5008C25.0005 64.0476 31.953 71 40.5007 71C46.6622 71 51.9776 67.3778 54.4767 62.1608C56.6579 63.6249 59.2781 64.4816 62.0976 64.4816C69.6563 64.4809 75.8064 58.331 75.8064 50.7709C75.8064 45.4789 72.7915 40.8868 68.3888 38.6032C68.6324 38.5108 68.876 38.416 69.1265 38.3376C69.3886 38.2556 69.6496 38.1829 69.9163 38.1114C70.9126 37.8377 71.9465 37.5547 72.8125 36.7834C74.0191 35.7058 74.809 33.7314 74.0377 32.2894C73.5803 31.435 72.606 30.8056 71.6646 30.7596C70.9857 30.7317 70.3795 31.0078 69.8216 31.3495C69.653 30.7178 69.4025 30.0988 68.8852 29.6558C68.1727 29.0461 67.0295 28.8316 66.114 29.1397C64.5598 29.657 63.778 31.6349 63.9177 33.2459C64.0194 34.4042 64.5734 35.3197 65.1127 36.2054C65.2546 36.4373 65.3968 36.6709 65.5271 36.9063C65.6508 37.1336 65.7661 37.3683 65.8793 37.6038C64.6773 37.2573 63.4115 37.0609 62.1002 37.0609C57.1685 37.0609 52.8466 39.6892 50.4332 43.6114C47.7405 41.3597 44.2787 39.9997 40.5033 39.9997C38.9584 39.9997 37.4699 40.2339 36.0599 40.6553C36.211 40.3333 36.3668 40.012 36.5377 39.705C36.69 39.4348 36.8505 39.1657 37.0136 38.9001C37.6187 37.9039 38.2447 36.8712 38.3575 35.5768C38.5133 33.7756 37.6426 31.5676 35.9164 30.9904C34.8958 30.6509 33.6335 30.8864 32.8405 31.563C32.239 32.0756 31.9629 32.7904 31.7723 33.5386C31.1143 33.1195 30.4145 32.7905 29.6363 32.8376C28.5948 32.8883 27.513 33.5846 27.0081 34.5338C26.1478 36.1386 27.0313 38.3407 28.3797 39.5427C29.3509 40.4075 30.5146 40.7261 31.6393 41.0358C31.9409 41.1189 32.2409 41.2009 32.5378 41.2944C32.8784 41.4031 33.2167 41.5299 33.5527 41.6629C28.4884 44.2173 25 49.4523 25 55.5003L25.0005 55.5008ZM65.0648 33.1448C64.9655 31.9993 65.5094 30.5572 66.4772 30.234C67.0118 30.0562 67.7244 30.1822 68.1353 30.5332C68.5776 30.911 68.7265 31.6347 68.8834 32.4014C68.895 32.4543 68.9217 32.5042 68.9492 32.5548C68.9608 32.5734 68.9631 32.5966 68.9735 32.6124C68.9735 32.6136 68.9735 32.6148 68.9758 32.6159C69.0072 32.6608 69.0497 32.6921 69.0914 32.7246C69.1077 32.7385 69.1158 32.7547 69.1344 32.7663C69.1885 32.8023 69.25 32.8239 69.3122 32.839C69.3215 32.8413 69.3308 32.8471 69.3389 32.8494C69.393 32.8599 69.4522 32.8552 69.5074 32.8494C69.526 32.8483 69.5434 32.8529 69.5616 32.8494C69.5639 32.8494 69.5662 32.8483 69.5662 32.8483C69.5975 32.8413 69.6296 32.8205 69.6609 32.8077C69.6992 32.7915 69.7417 32.781 69.7765 32.7582C69.7765 32.7582 69.7789 32.7582 69.7789 32.757C70.4199 32.3078 70.9832 31.8841 71.6056 31.9131C72.1426 31.9398 72.7488 32.3345 73.0156 32.8344C73.4957 33.7317 72.9 35.1552 72.0409 35.9196C71.3783 36.5119 70.5192 36.7473 69.608 36.9982C69.3307 37.0743 69.0535 37.1505 68.7779 37.2383C68.2525 37.4057 67.7468 37.609 67.2493 37.819C67.0312 37.326 66.8046 36.8315 66.5367 36.3467C66.3972 36.0962 66.2479 35.8503 66.0968 35.6056C65.6062 34.7949 65.1445 34.0324 65.0649 33.1448L65.0648 33.1448ZM62.0972 38.216C69.0184 38.216 74.6519 43.8473 74.6519 50.7707C74.6519 57.6942 69.0182 63.3254 62.0972 63.3254C59.4404 63.3254 56.9773 62.4907 54.9487 61.0773C55.6183 59.344 56.0019 57.4678 56.0019 55.4999C56.0019 51.149 54.196 47.2199 51.2998 44.4011C53.4842 40.7051 57.5003 38.2157 62.0968 38.2157L62.0972 38.216ZM50.7351 45.465C53.2755 48.0537 54.8471 51.5962 54.8471 55.4979C54.8471 57.1974 54.5344 58.8224 53.9904 60.336C51.2721 58.0314 49.5435 54.5994 49.5435 50.7692C49.5424 48.8725 49.9777 47.0805 50.7351 45.4649L50.7351 45.465ZM31.9451 39.9225C30.9024 39.636 29.9173 39.3646 29.1471 38.6799C28.1539 37.7941 27.4406 36.1662 28.0248 35.0774C28.3375 34.4886 29.0559 34.0208 29.6923 33.9922C30.3955 33.9586 31.0767 34.4484 31.8155 34.9657C32.0776 35.147 32.4368 35.0859 32.6193 34.8238C32.6676 34.7546 32.6966 34.6796 32.7117 34.6034H32.7128C32.8953 33.7185 33.0685 32.8861 33.5893 32.4404C34.0718 32.0282 34.9115 31.8759 35.5487 32.0847C36.7193 32.4759 37.319 34.1492 37.2057 35.4749C37.1168 36.5026 36.5867 37.3755 36.0257 38.2979C35.856 38.5774 35.6863 38.8581 35.5282 39.1419C35.2107 39.7133 34.944 40.299 34.6877 40.8798C34.1023 40.6327 33.5065 40.3903 32.8841 40.1927C32.5756 40.0957 32.2605 40.0103 31.945 39.9225L31.9451 39.9225ZM40.5001 41.1535C44.0728 41.1535 47.337 42.4757 49.8508 44.6431C48.9237 46.4907 48.3879 48.5669 48.3879 50.7709C48.3879 55.0917 50.4006 58.9439 53.5345 61.46C51.2654 66.3997 46.2843 69.8453 40.5007 69.8453C32.591 69.8453 26.1555 63.409 26.1555 55.5001C26.1555 47.592 32.5908 41.153 40.4997 41.153L40.5001 41.1535Z" fill="white"/>
</svg>
