<svg width="46" height="51" viewBox="0 0 46 51" fill="none" xmlns="http://www.w3.org/2000/svg">
<path d="M13.3359 37.1074C19.1548 32.9986 16.2689 23.6888 9.05398 23.6663C1.8465 23.689 -1.04501 32.9854 4.76069 37.099C3.31733 37.868 2.11139 39.0167 1.27251 40.4207C0.43362 41.8243 -0.00623568 43.4304 6.67885e-05 45.0659V47.5352C6.67885e-05 47.8674 0.199225 48.1668 0.505675 48.2947C3.21301 49.4276 6.11919 50.0089 9.05398 50.0045C11.988 50.0004 14.8923 49.4195 17.6023 48.2947C17.9087 48.1668 18.1079 47.8674 18.1079 47.5352V45.0659C18.1101 43.4312 17.667 41.8265 16.8262 40.4247C15.9855 39.0225 14.7788 37.8757 13.3359 37.1073V37.1074ZM3.2924 31.0735C3.29424 29.5461 3.90163 28.0814 4.98193 27.0015C6.06181 25.9212 7.52653 25.3138 9.05398 25.312C16.687 25.6019 16.6848 36.5463 9.05398 36.8351C7.52653 36.8333 6.06181 36.2259 4.98193 35.1456C3.90167 34.0657 3.29428 32.601 3.2924 31.0735ZM16.4617 46.9793C11.6937 48.8139 6.41447 48.8139 1.64623 46.9793V45.0663C1.65505 43.5275 2.13971 42.0286 3.03409 40.776C3.92809 39.5235 5.18803 38.5784 6.64098 38.0701C8.20117 38.6125 9.89879 38.6132 11.4597 38.0727C12.9181 38.5724 14.1836 39.5149 15.0802 40.7686C15.9771 42.0224 16.4599 43.5249 16.4618 45.0664L16.4617 46.9793Z" fill="white"/>
<path d="M40.4975 14.0613C46.3164 9.95247 43.4305 0.642693 36.2156 0.620117C29.0081 0.642899 26.1166 9.9393 31.9223 14.0528C30.4789 14.8219 29.273 15.9706 28.4341 17.3745C27.5952 18.7782 27.1554 20.3843 27.1617 22.0198V24.4891C27.1617 24.8212 27.3608 25.1207 27.6673 25.2486C30.3746 26.3814 33.2808 26.9627 36.2156 26.9583C39.1496 26.9543 42.0539 26.3733 44.7639 25.2486C45.0704 25.1207 45.2695 24.8212 45.2695 24.4891V22.0198C45.2717 20.385 44.8286 18.7803 43.9879 17.3786C43.1471 15.9764 41.9404 14.8296 40.4975 14.0613ZM30.454 8.0274C30.4559 6.49994 31.0633 5.03523 32.1436 3.95534C33.2234 2.87508 34.6881 2.26769 36.2156 2.26581C43.8486 2.55573 43.8464 13.5002 36.2156 13.789C34.6881 13.7871 33.2234 13.1797 32.1436 12.0994C31.0633 11.0196 30.4559 9.55485 30.454 8.0274ZM37.0387 15.3866V16.2582C37.0387 16.7127 36.6701 17.0813 36.2156 17.0813C35.7611 17.0813 35.3925 16.7127 35.3925 16.2582V15.3866C35.9393 15.4502 36.492 15.4502 37.0387 15.3866ZM43.6233 23.9327C38.8553 25.7674 33.5761 25.7674 28.8079 23.9327V22.0198C28.8167 20.4908 29.2951 19.0016 30.1784 17.7537C31.0617 16.5058 32.3074 15.5597 33.7464 15.0434V16.2582C33.7464 17.1405 34.2171 17.9555 34.981 18.3967C35.7449 18.8377 36.6863 18.8377 37.4502 18.3967C38.2142 17.9554 38.6849 17.1405 38.6849 16.2582V15.05C40.1278 15.5582 41.3775 16.5019 42.2619 17.75C43.1463 18.9982 43.6218 20.4901 43.6233 22.0198V23.9327Z" fill="white"/>
<path d="M38.6851 20.3741C38.6851 20.5924 38.7718 20.8018 38.9261 20.9561C39.0804 21.1105 39.2899 21.1972 39.5081 21.1972H41.9774C42.4319 21.1972 42.8005 20.8286 42.8005 20.3741C42.8005 19.9196 42.4319 19.551 41.9774 19.551H39.5081C39.2899 19.551 39.0804 19.6377 38.9261 19.7921C38.7718 19.9464 38.6851 20.1558 38.6851 20.3741Z" fill="white"/>
<path d="M22.0822 20.2715C22.9601 19.1875 21.9161 18.2186 21.6758 17.0813H23.0471C23.9202 17.0802 24.7569 16.7333 25.3742 16.116C25.9914 15.4986 26.3383 14.662 26.3395 13.789V3.91196C26.3384 3.03891 25.9915 2.20221 25.3742 1.58494C24.7568 0.967675 23.9202 0.620758 23.0471 0.619629H4.93931C4.06625 0.620731 3.22955 0.9676 2.61228 1.58494C1.99502 2.20228 1.6481 3.03893 1.64697 3.91196V13.789C1.64808 14.662 1.99494 15.4987 2.61228 16.116C3.22962 16.7332 4.06627 17.0802 4.93931 17.0813H15.6563C16.622 18.9453 18.3299 20.3148 20.3593 20.8528C20.6716 20.938 21.0023 20.9281 21.3092 20.8249C21.616 20.7212 21.8849 20.5287 22.0819 20.2715L22.0822 20.2715ZM16.9182 15.918V15.9183C16.7848 15.624 16.4919 15.4351 16.1686 15.4351H4.93888C4.50236 15.4348 4.0842 15.261 3.77556 14.9523C3.46692 14.6437 3.2931 14.2255 3.29273 13.789V3.912C3.2931 3.47547 3.46691 3.05732 3.77556 2.74868C4.08421 2.44004 4.50237 2.26622 4.93888 2.26585H23.0467C23.4832 2.26622 23.9014 2.44003 24.21 2.74868C24.5187 3.05733 24.6925 3.47549 24.6929 3.912V13.789C24.6925 14.2255 24.5187 14.6437 24.21 14.9523C23.9014 15.261 23.4832 15.4348 23.0467 15.4351H20.6814C18.9801 15.5502 20.4345 18.5937 20.799 19.2662H20.7994C19.0624 18.8006 17.6331 17.5678 16.9176 15.9184L16.9182 15.918Z" fill="white"/>
<path d="M21.4012 7.20467C21.4012 6.98641 21.3145 6.77696 21.1601 6.62264C21.0058 6.46831 20.7964 6.38159 20.5781 6.38159H7.40878C6.95425 6.38159 6.58569 6.75014 6.58569 7.20467C6.58569 7.6592 6.95425 8.02776 7.40878 8.02776H20.5781C20.7964 8.02776 21.0058 7.94104 21.1601 7.78671C21.3145 7.63238 21.4012 7.42294 21.4012 7.20467Z" fill="white"/>
<path d="M21.4012 10.4972C21.4012 10.2789 21.3145 10.0694 21.1602 9.91512C21.0059 9.76079 20.7964 9.67407 20.5782 9.67407H13.9935C13.539 9.67407 13.1704 10.0426 13.1704 10.4972C13.1704 10.9517 13.539 11.3202 13.9935 11.3202H20.5782C20.7964 11.3202 21.0059 11.2335 21.1602 11.0792C21.3145 10.9249 21.4012 10.7154 21.4012 10.4972Z" fill="white"/>
<path d="M41.9772 33.5432H31.2602C30.2945 31.6792 28.5867 30.3097 26.5573 29.7717C26.2449 29.6861 25.9142 29.6957 25.607 29.7993C25.3002 29.9029 25.0312 30.0955 24.8346 30.353C23.9575 31.4367 25.0003 32.4059 25.241 33.5432H23.8697C22.9967 33.5443 22.16 33.8912 21.5427 34.5085C20.9254 35.1259 20.5785 35.9629 20.5774 36.8355V46.7125C20.5785 47.5856 20.9254 48.4223 21.5427 49.0396C22.16 49.6568 22.9967 50.0037 23.8697 50.0049H41.9776C42.8506 50.0038 43.6873 49.6569 44.3046 49.0396C44.9218 48.4222 45.2688 47.5856 45.2699 46.7125V36.8355C45.2688 35.9625 44.9219 35.1258 44.3046 34.5085C43.6872 33.8913 42.8506 33.5443 41.9776 33.5432L41.9772 33.5432ZM43.6234 46.7126C43.623 47.1491 43.4492 47.5673 43.1406 47.8759C42.8319 48.1845 42.4138 48.3584 41.9772 48.3587H23.8694C23.4329 48.3584 23.0147 48.1845 22.7061 47.8759C22.3975 47.5672 22.2236 47.1491 22.2233 46.7126V36.8356C22.2236 36.399 22.3974 35.9809 22.7061 35.6723C23.0148 35.3636 23.4329 35.1898 23.8694 35.1894H26.2347C27.9375 35.0729 26.4806 32.0312 26.1171 31.3584H26.1168C27.8537 31.8239 29.2831 33.0567 29.9985 34.7062C30.1319 35.0005 30.4248 35.1894 30.7481 35.1894H41.9778C42.4143 35.1898 42.8325 35.3636 43.1411 35.6722C43.4498 35.9809 43.6236 36.399 43.624 36.8355L43.6234 46.7126Z" fill="white"/>
<path d="M39.5091 42.5974H26.3398C25.89 42.604 25.5288 42.9707 25.5288 43.4205C25.5288 43.8702 25.89 44.237 26.3398 44.2436H39.5091C39.9588 44.237 40.3201 43.8702 40.3201 43.4205C40.3201 42.9707 39.9589 42.604 39.5091 42.5974Z" fill="white"/>
<path d="M39.509 39.3049H32.9244C32.4742 39.3112 32.1127 39.6779 32.113 40.128C32.113 40.5781 32.4742 40.9449 32.9244 40.9511H39.509C39.9592 40.9449 40.3207 40.5781 40.3207 40.128C40.3207 39.6779 39.9591 39.3112 39.509 39.3049Z" fill="white"/>
</svg>
