<svg width="100" height="100" viewBox="0 0 100 100" fill="none" xmlns="http://www.w3.org/2000/svg">
<circle cx="50" cy="50" r="50" fill="#8499A6"/>
<path d="M65.2667 37.533H58.7661L57.7928 34.1563C57.5993 33.4733 56.8627 33.0004 56.0132 33.0004L43.0012 33C42.1517 33 41.415 33.4733 41.2216 34.1559L40.2483 37.5326L33.7478 37.533C30.5755 37.533 28 40.1138 28 43.2807V61.9336C28 65.1006 30.5755 67.6813 33.7478 67.6813H65.2667C68.4336 67.6813 71.0144 65.1058 71.0144 61.9336V43.2807C71.0144 40.1138 68.4389 37.533 65.2667 37.533ZM42.2269 34.4466C42.2805 34.253 42.5873 34.0486 43.001 34.0486H56.0129C56.427 34.0486 56.7282 34.253 56.7871 34.4466L57.6741 37.533H41.34L42.2269 34.4466ZM69.9656 61.9328C69.9656 64.5245 67.8578 66.6323 65.2662 66.6323H33.7473C31.1556 66.6323 29.0478 64.5245 29.0478 61.9328L29.0482 43.2809C29.0482 40.6893 31.156 38.5814 33.7477 38.5814H65.2713C67.863 38.5814 69.9708 40.6893 69.9708 43.2809V61.9328H69.9656Z" fill="white"/>
<path d="M49.5067 40.8772C43.0384 40.8772 37.7794 46.1359 37.7794 52.6044C37.7794 59.073 43.0382 64.3317 49.5067 64.3317C55.9752 64.3317 61.234 59.073 61.234 52.6044C61.234 46.1415 55.9752 40.8772 49.5067 40.8772ZM49.5067 63.2823C43.619 63.2823 38.8288 58.4916 38.8288 52.6044C38.8288 46.7173 43.6195 41.9266 49.5067 41.9266C55.3939 41.9266 60.1845 46.7173 60.1845 52.6044C60.1845 58.4917 55.3939 63.2823 49.5067 63.2823Z" fill="white"/>
<path d="M57.5989 52.6035C57.5989 57.0727 53.9758 60.6958 49.5066 60.6958C45.0374 60.6958 41.4144 57.0727 41.4144 52.6035C41.4144 48.1347 45.0374 44.5116 49.5066 44.5116C53.9758 44.5116 57.5989 48.1347 57.5989 52.6035Z" fill="white"/>
<path d="M35.9244 40.9309H32.8756C32.2248 40.9309 31.6978 41.4579 31.6978 42.1087V43.2703C31.6978 43.921 32.2248 44.448 32.8756 44.448H35.9244C36.5752 44.448 37.1022 43.921 37.1022 43.2703V42.1087C37.1022 41.4579 36.5752 40.9309 35.9244 40.9309ZM36.0535 43.2646C36.0535 43.3343 35.9942 43.3936 35.9244 43.3936H32.8756C32.8058 43.3936 32.7465 43.3344 32.7465 43.2646V42.103C32.7465 42.0332 32.8058 41.974 32.8756 41.974H35.9244C35.9942 41.974 36.0535 42.0332 36.0535 42.103V43.2646Z" fill="white"/>
</svg>
