<svg width="38" height="37" viewBox="0 0 38 37" fill="none" xmlns="http://www.w3.org/2000/svg">
<path d="M15.0723 12.4932C14.281 14.3455 14.5328 16.4965 15.2522 18.3489C15.3601 18.5879 15.468 18.8567 15.54 19.0958C15.576 19.1555 15.6479 19.2451 15.7198 19.2153C15.7558 19.2153 15.7918 19.1555 15.8278 19.1256C16.9069 17.841 18.4897 16.9148 20.2523 16.4368C21.979 15.9588 24.1014 15.6301 24.7489 14.0169C24.8208 13.8675 24.8568 13.7181 24.8928 13.5687C25.0366 12.7919 24.7489 12.045 24.2812 11.3878L35.4326 1.25985C35.7564 0.990964 35.7564 0.542825 35.4326 0.244066C35.1089 -0.0546924 34.5333 -0.0845683 34.1736 0.184315L21.9071 9.53547C19.1732 8.54956 16.0436 10.1629 15.0723 12.4932Z" fill="#F2FEFD"/>
<path d="M36.4757 21.3066H35.1807V6.09982C35.1807 5.59193 34.821 5.14379 34.2814 4.93466L32.0511 6.93634H32.5907V21.3066H5.17998V6.93634H22.1228L24.9287 4.78528H4.13679C3.27346 4.78528 2.58999 5.3828 2.58999 6.06994V21.2768H1.295C0.575554 21.2768 0 21.7548 0 22.3523C0 22.9498 0.575554 23.4278 1.295 23.4278H9.38872L7.734 34.9898C7.62609 35.8263 8.41747 36.5433 9.42469 36.5433C10.288 36.5433 11.0434 36.0056 11.1154 35.2587L12.8061 23.4278H24.9287L26.6194 35.2587C26.6913 35.9757 27.4467 36.5433 28.31 36.5433C29.3173 36.5433 30.1087 35.8263 30.0007 34.9898L28.346 23.4278H36.4397C37.1592 23.4278 37.7347 22.9498 37.7347 22.3523C37.7347 21.7847 37.1592 21.3066 36.4757 21.3066Z" fill="#F2FEFD"/>
</svg>
