<svg width="101" height="72" viewBox="0 0 101 72" fill="none" xmlns="http://www.w3.org/2000/svg">
<path d="M11.0036 71.1239C10.1054 71.1239 9.31378 70.5339 9.05367 69.6731C8.79358 68.8108 9.12615 67.8802 9.87372 67.3814C14.6236 64.2076 19.0137 59.6928 21.9214 54.997C24.6943 50.5178 24.9344 47.8286 24.7042 47.2014C24.6715 47.1971 24.6289 47.1943 24.5706 47.1943C16.9941 47.1943 10.6695 44.8499 6.282 40.4134C4.21977 38.3284 2.6309 35.8314 1.56195 32.994C0.525853 30.2449 0 27.2394 0 24.0627C0 17.8831 2.39906 12.0745 6.75644 7.70622C11.1141 3.33654 16.9068 0.931152 23.068 0.931152C29.354 0.931152 35.1557 3.36675 39.4064 7.79196C43.747 12.3083 46.1359 18.6233 46.1359 25.5706C46.1359 43.9509 38.248 55.0584 31.6323 61.1396C23.6592 68.4648 14.9271 71.1241 11.0031 71.1241L11.0036 71.1239ZM23.067 5.01492C12.5939 5.01492 4.07362 13.5587 4.07362 24.0607C4.07362 33.2685 9.45877 43.1064 24.5693 43.1064C26.542 43.1064 28.0499 44.1966 28.6013 46.0237C29.7482 49.8246 26.4396 55.5351 24.9629 57.8124C23.4664 60.1226 21.687 62.3488 19.7088 64.408C22.5726 63.0099 25.7747 60.9747 28.8785 58.1229C34.8917 52.5963 42.0618 42.4603 42.0618 25.5653C42.0618 13.658 34.073 5.0146 23.067 5.0146V5.01492Z" fill="#5C6B74"/>
<path d="M65.1679 71.1239C64.2697 71.1239 63.4781 70.5339 63.218 69.6731C62.9579 68.8108 63.2905 67.8802 64.038 67.3814C68.7879 64.2076 73.178 59.6928 76.0858 54.997C78.8586 50.5178 79.0988 47.8286 78.8685 47.2014C78.8358 47.1971 78.7932 47.1943 78.7349 47.1943C71.1584 47.1943 64.8338 44.8499 60.4463 40.4134C58.3841 38.3284 56.7952 35.8314 55.7263 32.994C54.6902 30.2449 54.1643 27.2394 54.1643 24.0627C54.1643 17.8831 56.5634 12.0745 60.9208 7.70622C65.2784 3.33654 71.0711 0.931152 77.2323 0.931152C83.5183 0.931152 89.32 3.36675 93.5707 7.79196C97.9113 12.3083 100.3 18.6233 100.3 25.5706C100.3 43.9509 92.4123 55.0584 85.7966 61.1396C77.8235 68.4648 69.0929 71.1241 65.1675 71.1241L65.1679 71.1239ZM77.2327 5.01492C66.7597 5.01492 58.2394 13.5587 58.2394 24.0607C58.2394 33.2685 63.6245 43.1064 78.735 43.1064C80.7077 43.1064 82.2156 44.1966 82.7671 46.0237C83.914 49.8246 80.6054 55.5351 79.1287 57.8124C77.6321 60.1226 75.8527 62.3488 73.8745 64.408C76.7383 63.0099 79.9404 60.9747 83.0443 58.1229C89.0574 52.5963 96.2276 42.4603 96.2276 25.5653C96.2261 13.658 88.2374 5.0146 77.2327 5.0146V5.01492Z" fill="#5C6B74"/>
</svg>
