<svg width="139" height="111" viewBox="0 0 139 111" fill="none" xmlns="http://www.w3.org/2000/svg">
<path d="M112.214 0.899993L113.414 13.05L73.5143 94.65C73.5143 94.65 73.0643 95.55 72.1643 97.35C71.3643 99.05 70.5143 101.1 69.6143 103.5C68.8143 105.9 68.3143 108.2 68.1143 110.4H66.6143L63.3143 99.75L112.214 0.899993ZM16.8143 97.05V108H0.164258V106.5C0.264258 106.5 0.664258 106.5 1.36426 106.5C2.16426 106.5 2.56426 106.5 2.56426 106.5C5.26426 106.5 7.66426 105.7 9.76426 104.1C11.8643 102.4 13.1143 100.05 13.5143 97.05H16.8143ZM21.9143 99.45C21.9143 99.55 21.9143 99.65 21.9143 99.75C21.9143 99.85 21.9143 100 21.9143 100.2C21.9143 101.8 22.4643 103.3 23.5643 104.7C24.7643 106 26.1643 106.65 27.7643 106.65H30.0143V108H20.8643V99.45H21.9143ZM25.2143 0.899993H26.5643L30.3143 11.85L21.1643 108H12.1643L25.2143 0.899993ZM26.5643 0.899993L71.7143 90L66.6143 110.4L23.4143 24L26.5643 0.899993ZM113.564 0.899993L126.914 108H111.014L103.064 24.45L112.214 0.899993H113.564ZM122.414 97.05H125.564C126.064 100.05 127.364 102.4 129.464 104.1C131.564 105.7 133.914 106.5 136.514 106.5C136.514 106.5 136.914 106.5 137.714 106.5C138.514 106.5 138.914 106.5 138.914 106.5V108H122.414V97.05ZM110.264 99.45H111.314V108H102.164V106.65H104.414C106.114 106.65 107.514 106 108.614 104.7C109.714 103.3 110.264 101.8 110.264 100.2C110.264 100 110.264 99.85 110.264 99.75C110.264 99.65 110.264 99.55 110.264 99.45Z" fill="#585F5E"/>
</svg>
