<svg width="95" height="86" viewBox="0 0 95 86" fill="none" xmlns="http://www.w3.org/2000/svg">
<path d="M89.1043 2.09999C90.971 2.36666 92.2376 2.93333 92.9043 3.8C93.6376 4.66666 94.0043 5.8 94.0043 7.19999C94.0043 11.8 91.5376 13.9333 86.6043 13.6L83.1043 13.3C79.171 12.9667 75.2376 12.7 71.3043 12.5C67.4376 12.3 63.371 12.2 59.1043 12.2H54.6043C53.8043 22.0667 52.971 31.0667 52.1043 39.2L69.3043 38.9C71.771 38.9 73.4043 39.3333 74.2043 40.2C75.071 41.0667 75.5043 42.2333 75.5043 43.7C75.5043 45.9667 74.8376 47.7667 73.5043 49.1C72.171 50.3667 70.271 51 67.8043 51H50.7043L50.1043 55.3C48.7043 66.3 45.7043 74.1333 41.1043 78.8C36.571 83.4667 30.3043 85.8 22.3043 85.8C17.771 85.8 13.6043 84.8333 9.8043 82.9C6.0043 80.9 3.2043 78.5 1.4043 75.7C0.670964 74.5667 0.304297 73.2 0.304297 71.6C0.304297 70 0.670964 68.6 1.4043 67.4C2.2043 66.2 3.17096 65.6 4.3043 65.6C5.1043 65.6 5.87096 65.8667 6.6043 66.4C7.4043 66.9333 8.4043 67.9667 9.6043 69.5C12.8043 73.7 16.771 75.8 21.5043 75.8C25.3043 75.8 28.471 74.2667 31.0043 71.2C33.6043 68.0667 35.271 63.1667 36.0043 56.5L36.6043 51H31.8043C30.271 51 28.9376 50.5667 27.8043 49.7C26.7376 48.8333 26.2043 47.6 26.2043 46C26.2043 43.9333 26.7376 42.3667 27.8043 41.3C28.871 40.1667 30.4376 39.6 32.5043 39.6C34.371 39.6 36.2043 39.5667 38.0043 39.5C38.8043 32.1667 39.671 23.2667 40.6043 12.8C33.4043 13.4667 28.3376 14.6333 25.4043 16.3C22.471 17.9667 21.0043 20.4333 21.0043 23.7C21.0043 25.9667 21.671 28.1333 23.0043 30.2C23.4043 30.8 23.6043 31.4 23.6043 32C23.6043 33.2 22.9376 34.2667 21.6043 35.2C20.271 36.0667 18.771 36.5 17.1043 36.5C15.3043 36.5 13.771 35.9667 12.5043 34.9C11.7043 34.2333 10.9376 32.8667 10.2043 30.8C9.47096 28.7333 9.1043 26.4333 9.1043 23.9C9.1043 15.6333 13.3376 9.63333 21.8043 5.9C30.3376 2.16666 42.771 0.299994 59.1043 0.299994C70.4376 0.299994 80.4376 0.899994 89.1043 2.09999Z" fill="black"/>
</svg>
