<svg width="1324" height="342" viewBox="0 0 1324 342" fill="none" xmlns="http://www.w3.org/2000/svg">
<path d="M394.894 11.9L396.094 24.05L356.194 105.65C356.194 105.65 355.744 106.55 354.844 108.35C354.044 110.05 353.194 112.1 352.294 114.5C351.494 116.9 350.994 119.2 350.794 121.4H349.294L345.994 110.75L394.894 11.9ZM299.494 108.05V119H282.844V117.5C282.944 117.5 283.344 117.5 284.044 117.5C284.844 117.5 285.244 117.5 285.244 117.5C287.944 117.5 290.344 116.7 292.444 115.1C294.544 113.4 295.794 111.05 296.194 108.05H299.494ZM304.594 110.45C304.594 110.55 304.594 110.65 304.594 110.75C304.594 110.85 304.594 111 304.594 111.2C304.594 112.8 305.144 114.3 306.244 115.7C307.444 117 308.844 117.65 310.444 117.65H312.694V119H303.544V110.45H304.594ZM307.894 11.9H309.244L312.994 22.85L303.844 119H294.844L307.894 11.9ZM309.244 11.9L354.394 101L349.294 121.4L306.094 35L309.244 11.9ZM396.244 11.9L409.594 119H393.694L385.744 35.45L394.894 11.9H396.244ZM405.094 108.05H408.244C408.744 111.05 410.044 113.4 412.144 115.1C414.244 116.7 416.594 117.5 419.194 117.5C419.194 117.5 419.594 117.5 420.394 117.5C421.194 117.5 421.594 117.5 421.594 117.5V119H405.094V108.05ZM392.944 110.45H393.994V119H384.844V117.65H387.094C388.794 117.65 390.194 117 391.294 115.7C392.394 114.3 392.944 112.8 392.944 111.2C392.944 111 392.944 110.85 392.944 110.75C392.944 110.65 392.944 110.55 392.944 110.45ZM466.665 14V119H452.715V14H466.665ZM506.865 113.75L508.065 119H466.215V113.75H506.865ZM500.715 64.7V69.8H466.215V64.7H500.715ZM507.465 14V19.25H466.215V14H507.465ZM516.615 92.6L508.515 119H482.115L487.515 113.75C492.715 113.75 497.065 112.9 500.565 111.2C504.065 109.4 506.965 106.9 509.265 103.7C511.565 100.5 513.515 96.8 515.115 92.6H516.615ZM500.715 69.5V80.9H499.215V78.95C499.215 76.45 498.365 74.3 496.665 72.5C494.965 70.7 492.815 69.8 490.215 69.8V69.5H500.715ZM500.715 53.6V65H490.215V64.7C492.815 64.6 494.965 63.65 496.665 61.85C498.365 60.05 499.215 57.9 499.215 55.4V53.6H500.715ZM507.465 18.8V32.6H505.965V30.2C505.965 27.1 504.915 24.5 502.815 22.4C500.815 20.3 498.215 19.2 495.015 19.1V18.8H507.465ZM507.465 11.3V15.65L489.165 14C491.365 14 493.665 13.85 496.065 13.55C498.565 13.25 500.865 12.9 502.965 12.5C505.065 12.1 506.565 11.7 507.465 11.3ZM453.165 108.05V119H441.165V117.5C441.165 117.5 441.465 117.5 442.065 117.5C442.765 117.5 443.115 117.5 443.115 117.5C445.715 117.5 447.915 116.6 449.715 114.8C451.615 112.9 452.615 110.65 452.715 108.05H453.165ZM453.165 24.95H452.715C452.715 22.35 451.765 20.15 449.865 18.35C447.965 16.45 445.715 15.5 443.115 15.5C443.115 15.5 442.815 15.5 442.215 15.5C441.615 15.5 441.315 15.5 441.315 15.5L441.165 14H453.165V24.95ZM565.203 14V119H551.253V14H565.203ZM605.403 113.75L606.603 119H564.753V113.75H605.403ZM615.153 92.6L607.053 119H580.653L586.053 113.75C591.253 113.75 595.603 112.9 599.103 111.2C602.603 109.4 605.503 106.9 607.803 103.7C610.103 100.5 612.053 96.8 613.653 92.6H615.153ZM551.703 108.05V119H539.703V117.5C539.703 117.5 540.003 117.5 540.603 117.5C541.303 117.5 541.653 117.5 541.653 117.5C544.253 117.5 546.453 116.6 548.253 114.8C550.153 112.9 551.153 110.65 551.253 108.05H551.703ZM551.703 24.95H551.253C551.153 22.35 550.153 20.15 548.253 18.35C546.453 16.45 544.253 15.5 541.653 15.5C541.653 15.5 541.303 15.5 540.603 15.5C540.003 15.5 539.703 15.5 539.703 15.5V14H551.703V24.95ZM564.753 24.95V14H576.753V15.5C576.653 15.5 576.303 15.5 575.703 15.5C575.103 15.5 574.803 15.5 574.803 15.5C572.203 15.5 569.953 16.45 568.053 18.35C566.253 20.15 565.303 22.35 565.203 24.95H564.753ZM660.956 14V119H647.006V14H660.956ZM647.456 108.05V119H635.456V117.5C635.456 117.5 635.756 117.5 636.356 117.5C637.056 117.5 637.406 117.5 637.406 117.5C640.006 117.5 642.206 116.6 644.006 114.8C645.906 112.9 646.906 110.65 647.006 108.05H647.456ZM647.456 24.95H647.006C646.906 22.35 645.906 20.15 644.006 18.35C642.206 16.45 640.006 15.5 637.406 15.5C637.406 15.5 637.056 15.5 636.356 15.5C635.756 15.5 635.456 15.5 635.456 15.5V14H647.456V24.95ZM660.506 108.05H660.956C661.056 110.65 662.006 112.9 663.806 114.8C665.706 116.6 667.956 117.5 670.556 117.5C670.556 117.5 670.856 117.5 671.456 117.5C672.056 117.5 672.406 117.5 672.506 117.5V119H660.506V108.05ZM660.506 24.95V14H672.506V15.5C672.406 15.5 672.056 15.5 671.456 15.5C670.856 15.5 670.556 15.5 670.556 15.5C667.956 15.5 665.706 16.45 663.806 18.35C662.006 20.15 661.056 22.35 660.956 24.95H660.506ZM752.904 11.9C764.104 11.9 773.854 14.15 782.154 18.65C790.554 23.15 797.054 29.5 801.654 37.7C806.354 45.9 808.704 55.5 808.704 66.5C808.704 77.5 806.354 87.1 801.654 95.3C797.054 103.5 790.554 109.85 782.154 114.35C773.854 118.85 764.104 121.1 752.904 121.1C741.904 121.1 732.204 118.85 723.804 114.35C715.504 109.85 709.004 103.5 704.304 95.3C699.704 87.1 697.404 77.5 697.404 66.5C697.404 55.5 699.704 45.9 704.304 37.7C709.004 29.5 715.504 23.15 723.804 18.65C732.204 14.15 741.904 11.9 752.904 11.9ZM752.904 116C761.004 116 768.004 113.95 773.904 109.85C779.804 105.75 784.404 100 787.704 92.6C791.004 85.2 792.654 76.5 792.654 66.5C792.654 56.5 791.004 47.8 787.704 40.4C784.404 33 779.804 27.25 773.904 23.15C768.004 19.05 761.004 17 752.904 17C745.004 17 738.054 19.05 732.054 23.15C726.154 27.25 721.554 33 718.254 40.4C714.954 47.8 713.304 56.5 713.304 66.5C713.304 76.5 714.954 85.2 718.254 92.6C721.554 100 726.154 105.75 732.054 109.85C738.054 113.95 745.004 116 752.904 116ZM855.059 14H875.609C880.109 14 884.309 14.6 888.209 15.8C892.109 17 895.409 18.8 898.109 21.2C900.909 23.5 903.109 26.4 904.709 29.9C906.309 33.4 907.109 37.5 907.109 42.2C907.109 46.8 906.059 51.3 903.959 55.7C901.859 60 898.909 63.55 895.109 66.35C891.409 69.15 887.009 70.65 881.909 70.85C884.109 71.65 886.309 73.2 888.509 75.5C890.709 77.8 892.609 80.05 894.209 82.25C894.209 82.35 894.809 83.3 896.009 85.1C897.309 86.9 898.909 89.15 900.809 91.85C902.709 94.45 904.609 97.05 906.509 99.65C908.509 102.25 910.259 104.4 911.759 106.1C913.759 108.5 915.709 110.55 917.609 112.25C919.609 113.85 921.709 115.15 923.909 116.15C926.209 117.05 928.759 117.5 931.559 117.5V119H921.059C916.259 119 912.009 118.4 908.309 117.2C904.609 115.9 901.409 114.2 898.709 112.1C896.009 109.9 893.709 107.55 891.809 105.05C891.409 104.35 890.559 103.05 889.259 101.15C888.059 99.25 886.659 97.1 885.059 94.7C883.559 92.2 882.059 89.75 880.559 87.35C879.059 84.95 877.759 82.9 876.659 81.2C875.559 79.4 874.859 78.25 874.559 77.75C872.859 75.05 870.959 72.75 868.859 70.85C866.759 68.85 864.459 67.8 861.959 67.7V66.2C862.059 66.2 862.759 66.25 864.059 66.35C865.459 66.35 867.059 66.3 868.859 66.2C871.459 66.1 874.209 65.65 877.109 64.85C880.109 64.05 882.809 62.5 885.209 60.2C887.709 57.9 889.559 54.5 890.759 50C891.059 49 891.259 47.75 891.359 46.25C891.559 44.75 891.609 43.2 891.509 41.6C891.409 34.7 889.659 29.35 886.259 25.55C882.959 21.65 878.609 19.6 873.209 19.4C870.909 19.2 868.509 19.15 866.009 19.25C863.509 19.25 861.359 19.25 859.559 19.25C857.759 19.25 856.759 19.25 856.559 19.25C856.559 19.15 856.409 18.7 856.109 17.9C855.909 17 855.659 16.15 855.359 15.35C855.159 14.45 855.059 14 855.059 14ZM857.009 14V119H843.059V14H857.009ZM843.509 108.05V119H831.509V117.5C831.509 117.5 831.809 117.5 832.409 117.5C833.109 117.5 833.459 117.5 833.459 117.5C836.059 117.5 838.259 116.6 840.059 114.8C841.959 112.9 842.959 110.65 843.059 108.05H843.509ZM843.509 24.95H843.059C842.959 22.35 841.959 20.15 840.059 18.35C838.259 16.45 836.059 15.5 833.459 15.5C833.459 15.5 833.109 15.5 832.409 15.5C831.809 15.5 831.509 15.5 831.509 15.5V14H843.509V24.95ZM856.559 108.05H857.009C857.009 110.65 857.959 112.9 859.859 114.8C861.759 116.6 864.009 117.5 866.609 117.5C866.709 117.5 867.009 117.5 867.509 117.5C868.109 117.5 868.409 117.5 868.409 117.5V119H856.559V108.05ZM988.676 11.6L1034.73 118.1H1017.18L983.726 30.8L988.676 11.6ZM956.426 108.05C955.726 110.05 955.626 111.75 956.126 113.15C956.626 114.55 957.426 115.65 958.526 116.45C959.726 117.15 960.926 117.5 962.126 117.5H963.476V119H932.726V117.5C932.726 117.5 932.976 117.5 933.476 117.5C933.876 117.5 934.076 117.5 934.076 117.5C936.376 117.5 938.726 116.8 941.126 115.4C943.626 113.9 945.676 111.45 947.276 108.05H956.426ZM988.676 11.6L989.876 24.65L952.376 118.55H942.626L981.176 28.4C981.276 28.2 981.626 27.45 982.226 26.15C982.926 24.75 983.626 23.1 984.326 21.2C985.126 19.3 985.826 17.45 986.426 15.65C987.026 13.85 987.326 12.5 987.326 11.6H988.676ZM1008.03 79.85V84.95H962.126V79.85H1008.03ZM1013.28 108.05H1030.23C1031.83 111.45 1033.83 113.9 1036.23 115.4C1038.73 116.8 1041.13 117.5 1043.43 117.5C1043.43 117.5 1043.63 117.5 1044.03 117.5C1044.43 117.5 1044.63 117.5 1044.63 117.5V119H1006.23V117.5H1007.58C1009.58 117.5 1011.33 116.7 1012.83 115.1C1014.33 113.4 1014.48 111.05 1013.28 108.05ZM299.58 168V266H286.56V168H299.58ZM337.1 261.1L338.22 266H299.16V261.1H337.1ZM346.2 241.36L338.64 266H314L319.04 261.1C323.893 261.1 327.953 260.307 331.22 258.72C334.487 257.04 337.193 254.707 339.34 251.72C341.487 248.733 343.307 245.28 344.8 241.36H346.2ZM286.98 255.78V266H275.78V264.6C275.78 264.6 276.06 264.6 276.62 264.6C277.273 264.6 277.6 264.6 277.6 264.6C280.027 264.6 282.08 263.76 283.76 262.08C285.533 260.307 286.467 258.207 286.56 255.78H286.98ZM286.98 178.22H286.56C286.467 175.793 285.533 173.74 283.76 172.06C282.08 170.287 280.027 169.4 277.6 169.4C277.6 169.4 277.273 169.4 276.62 169.4C276.06 169.4 275.78 169.4 275.78 169.4V168H286.98V178.22ZM299.16 178.22V168H310.36V169.4C310.267 169.4 309.94 169.4 309.38 169.4C308.82 169.4 308.54 169.4 308.54 169.4C306.113 169.4 304.013 170.287 302.24 172.06C300.56 173.74 299.673 175.793 299.58 178.22H299.16ZM388.95 168V266H375.93V168H388.95ZM376.35 255.78V266H365.15V264.6C365.15 264.6 365.43 264.6 365.99 264.6C366.644 264.6 366.97 264.6 366.97 264.6C369.397 264.6 371.45 263.76 373.13 262.08C374.904 260.307 375.837 258.207 375.93 255.78H376.35ZM376.35 178.22H375.93C375.837 175.793 374.904 173.74 373.13 172.06C371.45 170.287 369.397 169.4 366.97 169.4C366.97 169.4 366.644 169.4 365.99 169.4C365.43 169.4 365.15 169.4 365.15 169.4V168H376.35V178.22ZM388.53 255.78H388.95C389.044 258.207 389.93 260.307 391.61 262.08C393.384 263.76 395.484 264.6 397.91 264.6C397.91 264.6 398.19 264.6 398.75 264.6C399.31 264.6 399.637 264.6 399.73 264.6V266H388.53V255.78ZM388.53 178.22V168H399.73V169.4C399.637 169.4 399.31 169.4 398.75 169.4C398.19 169.4 397.91 169.4 397.91 169.4C395.484 169.4 393.384 170.287 391.61 172.06C389.93 173.74 389.044 175.793 388.95 178.22H388.53ZM448.242 168V266H435.222V168H448.242ZM480.022 215.32V220.08H447.822V215.32H480.022ZM486.322 168V172.9H447.822V168H486.322ZM480.022 219.8V230.44H478.622V228.62C478.622 226.287 477.829 224.28 476.242 222.6C474.656 220.92 472.649 220.08 470.222 220.08V219.8H480.022ZM480.022 204.96V215.6H470.222V215.32C472.649 215.227 474.656 214.34 476.242 212.66C477.829 210.98 478.622 208.973 478.622 206.64V204.96H480.022ZM486.322 172.48V183.96H484.922V182C484.922 179.387 484.036 177.24 482.262 175.56C480.582 173.787 478.436 172.9 475.822 172.9V172.48H486.322ZM486.322 165.48V169.54L469.242 168C471.296 168 473.442 167.86 475.682 167.58C478.016 167.3 480.162 166.973 482.122 166.6C484.082 166.227 485.482 165.853 486.322 165.48ZM435.642 255.78V266H424.442V264.6C424.442 264.6 424.722 264.6 425.282 264.6C425.936 264.6 426.262 264.6 426.262 264.6C428.689 264.6 430.742 263.76 432.422 262.08C434.196 260.307 435.129 258.207 435.222 255.78H435.642ZM435.642 178.22H435.222C435.222 175.793 434.336 173.74 432.562 172.06C430.789 170.287 428.689 169.4 426.262 169.4C426.262 169.4 425.982 169.4 425.422 169.4C424.862 169.4 424.582 169.4 424.582 169.4L424.442 168H435.642V178.22ZM447.822 255.78H448.242C448.336 258.207 449.222 260.307 450.902 262.08C452.676 263.76 454.776 264.6 457.202 264.6C457.202 264.6 457.482 264.6 458.042 264.6C458.602 264.6 458.929 264.6 459.022 264.6V266H447.822V255.78ZM536.246 168V266H523.226V168H536.246ZM573.766 261.1L574.886 266H535.826V261.1H573.766ZM568.026 215.32V220.08H535.826V215.32H568.026ZM574.326 168V172.9H535.826V168H574.326ZM582.866 241.36L575.306 266H550.666L555.706 261.1C560.559 261.1 564.619 260.307 567.886 258.72C571.152 257.04 573.859 254.707 576.006 251.72C578.152 248.733 579.972 245.28 581.466 241.36H582.866ZM568.026 219.8V230.44H566.626V228.62C566.626 226.287 565.832 224.28 564.246 222.6C562.659 220.92 560.652 220.08 558.226 220.08V219.8H568.026ZM568.026 204.96V215.6H558.226V215.32C560.652 215.227 562.659 214.34 564.246 212.66C565.832 210.98 566.626 208.973 566.626 206.64V204.96H568.026ZM574.326 172.48V185.36H572.926V183.12C572.926 180.227 571.946 177.8 569.986 175.84C568.119 173.88 565.692 172.853 562.706 172.76V172.48H574.326ZM574.326 165.48V169.54L557.246 168C559.299 168 561.446 167.86 563.686 167.58C566.019 167.3 568.166 166.973 570.126 166.6C572.086 166.227 573.486 165.853 574.326 165.48ZM523.646 255.78V266H512.446V264.6C512.446 264.6 512.726 264.6 513.286 264.6C513.939 264.6 514.266 264.6 514.266 264.6C516.692 264.6 518.746 263.76 520.426 262.08C522.199 260.307 523.132 258.207 523.226 255.78H523.646ZM523.646 178.22H523.226C523.226 175.793 522.339 173.74 520.566 172.06C518.792 170.287 516.692 169.4 514.266 169.4C514.266 169.4 513.986 169.4 513.426 169.4C512.866 169.4 512.586 169.4 512.586 169.4L512.446 168H523.646V178.22ZM634.347 166.04C635.934 166.04 637.754 166.133 639.807 166.32C641.861 166.507 643.914 166.787 645.967 167.16C648.114 167.44 649.981 167.767 651.567 168.14C653.247 168.42 654.461 168.747 655.207 169.12L654.647 185.78H653.387C653.387 181.207 651.754 177.567 648.487 174.86C645.221 172.153 641.114 170.8 636.167 170.8C630.941 170.8 626.694 172.34 623.427 175.42C620.254 178.407 618.667 181.953 618.667 186.06C618.574 188.113 619.087 190.307 620.207 192.64C621.421 194.88 623.241 196.98 625.667 198.94L652.967 221.76C656.234 224.28 658.521 227.22 659.827 230.58C661.227 233.847 661.881 237.253 661.787 240.8C661.601 249.013 658.847 255.593 653.527 260.54C648.207 265.487 641.021 267.96 631.967 267.96C629.074 267.96 625.947 267.68 622.587 267.12C619.321 266.56 616.241 265.72 613.347 264.6C610.454 263.387 608.121 261.847 606.347 259.98C605.881 258.3 605.647 256.247 605.647 253.82C605.741 251.3 606.021 248.733 606.487 246.12C607.047 243.507 607.747 241.173 608.587 239.12H609.847C609.381 243.88 610.034 248.127 611.807 251.86C613.674 255.593 616.334 258.487 619.787 260.54C623.334 262.5 627.394 263.387 631.967 263.2C637.474 263.013 642.001 261.333 645.547 258.16C649.187 254.893 651.007 250.647 651.007 245.42C651.007 242.713 650.401 240.24 649.187 238C647.974 235.76 646.107 233.753 643.587 231.98L617.547 209.86C614.001 207.247 611.481 204.167 609.987 200.62C608.494 197.073 607.841 193.527 608.027 189.98C608.214 185.78 609.334 181.86 611.387 178.22C613.441 174.487 616.381 171.547 620.207 169.4C624.127 167.16 628.841 166.04 634.347 166.04ZM655.207 167.44V170.38H642.607V167.44H655.207ZM729.938 168.42V266H716.918V168.42H729.938ZM765.358 167.86V172.62H681.498V167.86H765.358ZM765.358 172.2V185.22L763.958 185.08V182.98C763.958 179.993 762.978 177.567 761.018 175.7C759.151 173.74 756.724 172.713 753.738 172.62V172.2H765.358ZM765.358 165.34V169.4L748.278 167.86C750.331 167.86 752.478 167.72 754.718 167.44C757.051 167.16 759.198 166.833 761.158 166.46C763.118 166.087 764.518 165.713 765.358 165.34ZM717.338 255.78V266H706.138V264.6C706.138 264.6 706.418 264.6 706.978 264.6C707.631 264.6 707.958 264.6 707.958 264.6C710.384 264.6 712.438 263.76 714.118 262.08C715.891 260.307 716.824 258.207 716.918 255.78H717.338ZM729.518 255.78H729.938C730.031 258.207 730.918 260.307 732.598 262.08C734.371 263.76 736.471 264.6 738.898 264.6C738.898 264.6 739.178 264.6 739.738 264.6C740.391 264.6 740.718 264.6 740.718 264.6V266H729.518V255.78ZM693.118 172.2V172.62C690.131 172.713 687.658 173.74 685.698 175.7C683.831 177.567 682.898 179.993 682.898 182.98V185.08L681.498 185.22V172.2H693.118ZM681.498 165.34C682.431 165.713 683.831 166.087 685.698 166.46C687.658 166.833 689.804 167.16 692.138 167.44C694.471 167.72 696.618 167.86 698.578 167.86L681.498 169.4V165.34ZM802.815 168.14L830.675 219.52L820.035 223.44L786.855 168.14H802.815ZM832.215 220.92V266H819.195V220.92H832.215ZM856.295 168.14H865.675L831.095 223.86L825.355 222.32L856.295 168.14ZM850.555 178.08C851.395 176.773 851.629 175.467 851.255 174.16C850.882 172.76 850.182 171.64 849.155 170.8C848.129 169.867 846.962 169.4 845.655 169.4C845.655 169.4 845.375 169.4 844.815 169.4C844.255 169.4 843.975 169.4 843.975 169.4V168H875.895V169.4H873.935C871.042 169.4 868.335 170.24 865.815 171.92C863.295 173.6 861.289 175.513 859.795 177.66L850.555 178.08ZM808.135 178.08L792.455 177.66C791.149 175.513 789.235 173.6 786.715 171.92C784.195 170.24 781.442 169.4 778.455 169.4H776.495V168H814.855V169.4C814.855 169.4 814.529 169.4 813.875 169.4C813.315 169.4 813.035 169.4 813.035 169.4C810.982 169.4 809.395 170.38 808.275 172.34C807.249 174.207 807.202 176.12 808.135 178.08ZM819.475 255.78V266H808.415V264.6C808.415 264.6 808.695 264.6 809.255 264.6C809.815 264.6 810.142 264.6 810.235 264.6C812.662 264.6 814.715 263.76 816.395 262.08C818.169 260.307 819.102 258.207 819.195 255.78H819.475ZM831.795 255.78H832.215C832.215 258.207 833.102 260.307 834.875 262.08C836.649 263.76 838.749 264.6 841.175 264.6C841.175 264.6 841.455 264.6 842.015 264.6C842.575 264.6 842.855 264.6 842.855 264.6V266H831.795V255.78ZM914.508 168V266H901.488V168H914.508ZM952.028 261.1L953.148 266H914.088V261.1H952.028ZM961.128 241.36L953.568 266H928.928L933.968 261.1C938.821 261.1 942.881 260.307 946.148 258.72C949.415 257.04 952.121 254.707 954.268 251.72C956.415 248.733 958.235 245.28 959.728 241.36H961.128ZM901.908 255.78V266H890.708V264.6C890.708 264.6 890.988 264.6 891.548 264.6C892.201 264.6 892.528 264.6 892.528 264.6C894.955 264.6 897.008 263.76 898.688 262.08C900.461 260.307 901.395 258.207 901.488 255.78H901.908ZM901.908 178.22H901.488C901.395 175.793 900.461 173.74 898.688 172.06C897.008 170.287 894.955 169.4 892.528 169.4C892.528 169.4 892.201 169.4 891.548 169.4C890.988 169.4 890.708 169.4 890.708 169.4V168H901.908V178.22ZM914.088 178.22V168H925.288V169.4C925.195 169.4 924.868 169.4 924.308 169.4C923.748 169.4 923.468 169.4 923.468 169.4C921.041 169.4 918.941 170.287 917.168 172.06C915.488 173.74 914.601 175.793 914.508 178.22H914.088ZM1003.88 168V266H990.858V168H1003.88ZM1041.4 261.1L1042.52 266H1003.46V261.1H1041.4ZM1035.66 215.32V220.08H1003.46V215.32H1035.66ZM1041.96 168V172.9H1003.46V168H1041.96ZM1050.5 241.36L1042.94 266H1018.3L1023.34 261.1C1028.19 261.1 1032.25 260.307 1035.52 258.72C1038.79 257.04 1041.49 254.707 1043.64 251.72C1045.79 248.733 1047.61 245.28 1049.1 241.36H1050.5ZM1035.66 219.8V230.44H1034.26V228.62C1034.26 226.287 1033.47 224.28 1031.88 222.6C1030.29 220.92 1028.29 220.08 1025.86 220.08V219.8H1035.66ZM1035.66 204.96V215.6H1025.86V215.32C1028.29 215.227 1030.29 214.34 1031.88 212.66C1033.47 210.98 1034.26 208.973 1034.26 206.64V204.96H1035.66ZM1041.96 172.48V185.36H1040.56V183.12C1040.56 180.227 1039.58 177.8 1037.62 175.84C1035.75 173.88 1033.33 172.853 1030.34 172.76V172.48H1041.96ZM1041.96 165.48V169.54L1024.88 168C1026.93 168 1029.08 167.86 1031.32 167.58C1033.65 167.3 1035.8 166.973 1037.76 166.6C1039.72 166.227 1041.12 165.853 1041.96 165.48ZM991.278 255.78V266H980.078V264.6C980.078 264.6 980.358 264.6 980.918 264.6C981.572 264.6 981.898 264.6 981.898 264.6C984.325 264.6 986.378 263.76 988.058 262.08C989.832 260.307 990.765 258.207 990.858 255.78H991.278ZM991.278 178.22H990.858C990.858 175.793 989.972 173.74 988.198 172.06C986.425 170.287 984.325 169.4 981.898 169.4C981.898 169.4 981.618 169.4 981.058 169.4C980.498 169.4 980.218 169.4 980.218 169.4L980.078 168H991.278V178.22Z" fill="white"/>
<path d="M374.698 318.658C374.698 319.168 374.627 319.52 374.487 319.713C374.346 319.889 374.162 319.977 373.933 319.977H362.885C362.657 319.977 362.463 319.88 362.305 319.687C362.165 319.493 362.094 319.15 362.094 318.658C362.094 318.166 362.165 317.823 362.305 317.63C362.463 317.437 362.657 317.34 362.885 317.34H373.933C374.039 317.34 374.135 317.366 374.223 317.419C374.329 317.454 374.417 317.524 374.487 317.63C374.557 317.735 374.61 317.876 374.645 318.052C374.68 318.21 374.698 318.412 374.698 318.658ZM406.677 299.357C406.677 299.586 406.659 299.788 406.624 299.964C406.589 300.14 406.536 300.289 406.466 300.412C406.396 300.518 406.308 300.605 406.202 300.676C406.097 300.729 405.983 300.755 405.86 300.755H395.682V331.473C395.682 331.578 395.655 331.675 395.603 331.763C395.55 331.851 395.462 331.921 395.339 331.974C395.216 332.026 395.049 332.07 394.838 332.105C394.627 332.141 394.372 332.158 394.073 332.158C393.775 332.158 393.52 332.141 393.309 332.105C393.098 332.07 392.931 332.026 392.808 331.974C392.685 331.921 392.597 331.851 392.544 331.763C392.491 331.675 392.465 331.578 392.465 331.473V300.755H382.287C382.147 300.755 382.024 300.729 381.918 300.676C381.83 300.605 381.751 300.518 381.681 300.412C381.611 300.289 381.558 300.14 381.523 299.964C381.488 299.788 381.47 299.586 381.47 299.357C381.47 299.111 381.488 298.9 381.523 298.725C381.558 298.531 381.611 298.373 381.681 298.25C381.751 298.127 381.83 298.039 381.918 297.986C382.024 297.916 382.147 297.881 382.287 297.881H405.86C405.983 297.881 406.097 297.916 406.202 297.986C406.308 298.039 406.396 298.127 406.466 298.25C406.536 298.373 406.589 298.531 406.624 298.725C406.659 298.9 406.677 299.111 406.677 299.357ZM435.202 331.473C435.202 331.578 435.176 331.675 435.123 331.763C435.07 331.851 434.982 331.921 434.859 331.974C434.754 332.026 434.596 332.07 434.385 332.105C434.191 332.141 433.945 332.158 433.646 332.158C433.33 332.158 433.066 332.141 432.855 332.105C432.662 332.07 432.504 332.026 432.381 331.974C432.275 331.921 432.196 331.851 432.143 331.763C432.091 331.675 432.064 331.578 432.064 331.473V317.313C432.064 315.837 431.95 314.642 431.722 313.728C431.493 312.796 431.15 312.005 430.693 311.354C430.236 310.687 429.647 310.177 428.927 309.825C428.224 309.456 427.397 309.271 426.448 309.271C425.235 309.271 424.022 309.702 422.809 310.563C421.597 311.425 420.322 312.69 418.986 314.36V331.473C418.986 331.578 418.96 331.675 418.907 331.763C418.854 331.851 418.766 331.921 418.643 331.974C418.538 332.026 418.38 332.07 418.169 332.105C417.975 332.141 417.721 332.158 417.404 332.158C417.105 332.158 416.85 332.141 416.64 332.105C416.446 332.07 416.288 332.026 416.165 331.974C416.042 331.921 415.954 331.851 415.901 331.763C415.866 331.675 415.849 331.578 415.849 331.473V295.93C415.849 295.824 415.866 295.728 415.901 295.64C415.954 295.552 416.042 295.481 416.165 295.429C416.288 295.358 416.446 295.314 416.64 295.297C416.85 295.262 417.105 295.244 417.404 295.244C417.721 295.244 417.975 295.262 418.169 295.297C418.38 295.314 418.538 295.358 418.643 295.429C418.766 295.481 418.854 295.552 418.907 295.64C418.96 295.728 418.986 295.824 418.986 295.93V310.827C420.287 309.386 421.588 308.331 422.889 307.663C424.189 306.978 425.49 306.635 426.791 306.635C428.355 306.635 429.674 306.898 430.746 307.426C431.818 307.953 432.68 308.665 433.33 309.562C433.998 310.458 434.473 311.504 434.754 312.699C435.053 313.895 435.202 315.336 435.202 317.023V331.473ZM467.682 318.315C467.682 318.948 467.515 319.388 467.181 319.634C466.847 319.862 466.522 319.977 466.206 319.977H449.937C449.937 321.453 450.078 322.789 450.359 323.984C450.658 325.18 451.141 326.208 451.809 327.069C452.477 327.913 453.347 328.563 454.42 329.021C455.492 329.478 456.81 329.706 458.375 329.706C459.482 329.706 460.475 329.609 461.354 329.416C462.233 329.223 462.989 329.012 463.622 328.783C464.272 328.537 464.799 328.317 465.204 328.124C465.626 327.931 465.924 327.834 466.1 327.834C466.206 327.834 466.302 327.86 466.39 327.913C466.478 327.966 466.548 328.054 466.601 328.177C466.654 328.282 466.689 328.423 466.707 328.599C466.742 328.774 466.759 328.994 466.759 329.258C466.759 329.381 466.751 329.504 466.733 329.627C466.715 329.732 466.689 329.838 466.654 329.943C466.636 330.031 466.601 330.119 466.548 330.207C466.496 330.295 466.425 330.383 466.337 330.471C466.25 330.559 465.977 330.717 465.52 330.945C465.063 331.156 464.465 331.376 463.727 331.604C462.989 331.815 462.128 332.009 461.143 332.185C460.176 332.36 459.13 332.448 458.005 332.448C456.16 332.448 454.525 332.176 453.101 331.631C451.677 331.068 450.482 330.251 449.515 329.179C448.548 328.089 447.81 326.744 447.3 325.145C446.808 323.545 446.562 321.69 446.562 319.581C446.562 317.56 446.817 315.749 447.327 314.149C447.854 312.55 448.601 311.196 449.568 310.089C450.535 308.964 451.695 308.111 453.048 307.531C454.42 306.934 455.94 306.635 457.61 306.635C459.403 306.635 460.932 306.934 462.198 307.531C463.463 308.129 464.501 308.938 465.309 309.957C466.135 310.959 466.733 312.128 467.102 313.464C467.489 314.8 467.682 316.206 467.682 317.683V318.315ZM464.439 317.393C464.492 314.861 463.912 312.884 462.699 311.46C461.486 310.036 459.719 309.324 457.399 309.324C456.204 309.324 455.149 309.553 454.235 310.01C453.338 310.449 452.574 311.038 451.941 311.776C451.326 312.515 450.851 313.376 450.517 314.36C450.183 315.327 449.99 316.338 449.937 317.393H464.439ZM512.498 331.473C512.498 331.648 512.436 331.789 512.313 331.895C512.208 331.982 512.059 332.044 511.865 332.079C511.689 332.132 511.443 332.158 511.127 332.158C510.828 332.158 510.573 332.132 510.362 332.079C510.151 332.044 509.984 331.982 509.861 331.895C509.756 331.789 509.703 331.648 509.703 331.473V328.81C508.631 329.97 507.444 330.866 506.143 331.499C504.86 332.132 503.524 332.448 502.136 332.448C500.888 332.448 499.763 332.29 498.761 331.974C497.776 331.64 496.941 331.174 496.256 330.576C495.57 329.961 495.043 329.223 494.674 328.361C494.305 327.5 494.12 326.533 494.12 325.461C494.12 324.143 494.393 323 494.937 322.033C495.482 321.049 496.256 320.231 497.258 319.581C498.26 318.931 499.464 318.447 500.87 318.131C502.276 317.797 503.841 317.63 505.563 317.63H509.36V315.573C509.36 314.554 509.255 313.657 509.044 312.884C508.833 312.093 508.49 311.434 508.016 310.906C507.541 310.379 506.926 309.983 506.17 309.72C505.414 309.456 504.491 309.324 503.401 309.324C502.347 309.324 501.397 309.456 500.554 309.72C499.71 309.966 498.972 310.247 498.339 310.563C497.706 310.88 497.179 311.17 496.757 311.434C496.352 311.68 496.062 311.803 495.887 311.803C495.781 311.803 495.685 311.785 495.597 311.75C495.509 311.715 495.43 311.653 495.359 311.565C495.307 311.46 495.263 311.337 495.227 311.196C495.21 311.038 495.201 310.854 495.201 310.643C495.201 310.273 495.227 309.983 495.28 309.772C495.333 309.544 495.465 309.324 495.676 309.113C495.904 308.885 496.3 308.621 496.862 308.322C497.425 308.023 498.066 307.751 498.787 307.505C499.525 307.241 500.316 307.03 501.16 306.872C502.004 306.714 502.848 306.635 503.691 306.635C505.326 306.635 506.706 306.837 507.831 307.241C508.956 307.628 509.861 308.19 510.547 308.929C511.25 309.667 511.751 310.581 512.05 311.671C512.349 312.743 512.498 313.965 512.498 315.336V331.473ZM509.36 320.214H505.01C503.744 320.214 502.637 320.328 501.687 320.557C500.738 320.785 499.947 321.119 499.314 321.559C498.682 321.998 498.207 322.525 497.891 323.141C497.592 323.756 497.442 324.459 497.442 325.25C497.442 326.621 497.873 327.72 498.734 328.546C499.613 329.354 500.844 329.759 502.426 329.759C503.674 329.759 504.834 329.442 505.906 328.81C506.996 328.159 508.147 327.166 509.36 325.83V320.214ZM538.755 308.823C538.755 309.087 538.747 309.315 538.729 309.509C538.712 309.685 538.676 309.834 538.624 309.957C538.588 310.062 538.536 310.15 538.465 310.221C538.413 310.273 538.334 310.3 538.228 310.3C538.07 310.3 537.885 310.265 537.674 310.194C537.463 310.106 537.217 310.019 536.936 309.931C536.655 309.843 536.347 309.764 536.013 309.693C535.679 309.605 535.31 309.562 534.906 309.562C534.431 309.562 533.965 309.667 533.508 309.878C533.051 310.071 532.568 310.396 532.058 310.854C531.566 311.293 531.039 311.882 530.476 312.62C529.931 313.358 529.325 314.264 528.657 315.336V331.473C528.657 331.578 528.63 331.675 528.578 331.763C528.525 331.851 528.437 331.921 528.314 331.974C528.209 332.026 528.05 332.07 527.839 332.105C527.646 332.141 527.391 332.158 527.075 332.158C526.776 332.158 526.521 332.141 526.31 332.105C526.117 332.07 525.959 332.026 525.836 331.974C525.713 331.921 525.625 331.851 525.572 331.763C525.537 331.675 525.519 331.578 525.519 331.473V307.61C525.519 307.505 525.537 307.408 525.572 307.32C525.625 307.232 525.713 307.162 525.836 307.109C525.959 307.039 526.108 306.995 526.284 306.978C526.477 306.942 526.723 306.925 527.022 306.925C527.321 306.925 527.567 306.942 527.76 306.978C527.954 306.995 528.103 307.039 528.209 307.109C528.314 307.162 528.384 307.232 528.42 307.32C528.472 307.408 528.499 307.505 528.499 307.61V311.381C529.184 310.379 529.817 309.57 530.397 308.955C530.977 308.34 531.531 307.865 532.058 307.531C532.586 307.18 533.095 306.942 533.588 306.819C534.097 306.696 534.616 306.635 535.143 306.635C535.372 306.635 535.635 306.652 535.934 306.688C536.233 306.705 536.549 306.749 536.883 306.819C537.235 306.89 537.543 306.978 537.806 307.083C538.088 307.171 538.281 307.259 538.386 307.347C538.492 307.417 538.562 307.487 538.597 307.558C538.632 307.61 538.659 307.689 538.676 307.795C538.712 307.883 538.729 308.015 538.729 308.19C538.747 308.349 538.755 308.56 538.755 308.823ZM559.95 330.049C559.95 330.418 559.915 330.717 559.845 330.945C559.792 331.174 559.696 331.358 559.555 331.499C559.432 331.622 559.239 331.745 558.975 331.868C558.729 331.974 558.439 332.062 558.105 332.132C557.771 332.22 557.419 332.281 557.05 332.316C556.681 332.369 556.321 332.396 555.969 332.396C554.791 332.396 553.789 332.237 552.963 331.921C552.137 331.604 551.46 331.13 550.933 330.497C550.406 329.847 550.019 329.029 549.773 328.045C549.544 327.061 549.43 325.9 549.43 324.564V309.72H545.87C545.624 309.72 545.431 309.614 545.29 309.403C545.15 309.175 545.079 308.841 545.079 308.401C545.079 308.173 545.097 307.979 545.132 307.821C545.167 307.646 545.22 307.505 545.29 307.399C545.361 307.276 545.44 307.188 545.528 307.136C545.633 307.083 545.747 307.057 545.87 307.057H549.43V301.203C549.43 301.098 549.448 301.001 549.483 300.913C549.535 300.825 549.623 300.755 549.746 300.702C549.869 300.632 550.028 300.588 550.221 300.57C550.432 300.535 550.687 300.518 550.986 300.518C551.302 300.518 551.557 300.535 551.75 300.57C551.961 300.588 552.119 300.632 552.225 300.702C552.348 300.755 552.436 300.825 552.489 300.913C552.541 301.001 552.568 301.098 552.568 301.203V307.057H559.159C559.283 307.057 559.388 307.083 559.476 307.136C559.581 307.188 559.669 307.276 559.74 307.399C559.81 307.505 559.863 307.646 559.898 307.821C559.933 307.979 559.95 308.173 559.95 308.401C559.95 308.841 559.871 309.175 559.713 309.403C559.573 309.614 559.388 309.72 559.159 309.72H552.568V324.143C552.568 325.953 552.823 327.333 553.332 328.282C553.86 329.231 554.809 329.706 556.18 329.706C556.602 329.706 556.98 329.662 557.314 329.574C557.665 329.486 557.973 329.39 558.237 329.284C558.5 329.179 558.72 329.082 558.896 328.994C559.089 328.906 559.256 328.862 559.397 328.862C559.485 328.862 559.564 328.88 559.634 328.915C559.704 328.95 559.757 329.021 559.792 329.126C559.845 329.214 559.88 329.337 559.898 329.495C559.933 329.636 559.95 329.82 559.95 330.049ZM608.22 319.291C608.22 321.189 607.974 322.938 607.482 324.538C606.99 326.138 606.252 327.526 605.267 328.704C604.3 329.882 603.088 330.805 601.629 331.473C600.17 332.123 598.473 332.448 596.54 332.448C594.676 332.448 593.042 332.158 591.635 331.578C590.247 330.98 589.078 330.137 588.129 329.047C587.197 327.939 586.494 326.604 586.019 325.039C585.562 323.475 585.334 321.708 585.334 319.739C585.334 317.841 585.571 316.092 586.046 314.492C586.538 312.893 587.267 311.513 588.234 310.353C589.218 309.175 590.44 308.261 591.899 307.61C593.358 306.96 595.063 306.635 597.014 306.635C598.878 306.635 600.504 306.925 601.892 307.505C603.298 308.085 604.467 308.929 605.399 310.036C606.331 311.126 607.034 312.453 607.508 314.018C607.983 315.582 608.22 317.34 608.22 319.291ZM604.898 319.581C604.898 318.228 604.766 316.936 604.503 315.705C604.239 314.475 603.799 313.394 603.184 312.462C602.569 311.513 601.743 310.766 600.706 310.221C599.669 309.658 598.377 309.377 596.83 309.377C595.406 309.377 594.175 309.632 593.138 310.142C592.101 310.651 591.249 311.363 590.581 312.277C589.93 313.174 589.447 314.237 589.131 315.468C588.814 316.698 588.656 318.025 588.656 319.449C588.656 320.82 588.788 322.13 589.051 323.378C589.315 324.608 589.755 325.689 590.37 326.621C590.985 327.553 591.811 328.291 592.848 328.836C593.885 329.381 595.177 329.653 596.724 329.653C598.148 329.653 599.379 329.398 600.416 328.889C601.453 328.379 602.297 327.676 602.947 326.779C603.615 325.883 604.107 324.819 604.423 323.589C604.74 322.358 604.898 321.022 604.898 319.581ZM631.947 297.433C631.947 297.679 631.929 297.881 631.894 298.039C631.876 298.18 631.841 298.294 631.788 298.382C631.753 298.47 631.701 298.531 631.63 298.566C631.577 298.602 631.507 298.619 631.419 298.619C631.279 298.619 631.112 298.575 630.918 298.487C630.725 298.399 630.479 298.303 630.18 298.197C629.899 298.092 629.556 297.995 629.152 297.907C628.765 297.819 628.308 297.775 627.781 297.775C627.042 297.775 626.418 297.898 625.909 298.145C625.399 298.373 624.986 298.751 624.669 299.278C624.353 299.788 624.124 300.456 623.984 301.282C623.861 302.091 623.799 303.075 623.799 304.235V307.057H629.653C629.776 307.057 629.881 307.083 629.969 307.136C630.057 307.188 630.136 307.276 630.206 307.399C630.277 307.505 630.329 307.646 630.365 307.821C630.4 307.979 630.417 308.173 630.417 308.401C630.417 308.841 630.347 309.175 630.206 309.403C630.066 309.614 629.881 309.72 629.653 309.72H623.799V331.473C623.799 331.578 623.773 331.675 623.72 331.763C623.667 331.851 623.579 331.921 623.456 331.974C623.351 332.026 623.193 332.07 622.982 332.105C622.771 332.141 622.516 332.158 622.217 332.158C621.918 332.158 621.663 332.141 621.452 332.105C621.259 332.07 621.101 332.026 620.978 331.974C620.855 331.921 620.767 331.851 620.714 331.763C620.679 331.675 620.661 331.578 620.661 331.473V309.72H617.076C616.829 309.72 616.636 309.614 616.495 309.403C616.372 309.175 616.311 308.841 616.311 308.401C616.311 308.173 616.328 307.979 616.364 307.821C616.399 307.646 616.443 307.505 616.495 307.399C616.566 307.276 616.645 307.188 616.733 307.136C616.838 307.083 616.952 307.057 617.076 307.057H620.661V304.341C620.661 302.671 620.811 301.247 621.11 300.069C621.409 298.892 621.857 297.934 622.454 297.195C623.07 296.457 623.834 295.921 624.748 295.587C625.662 295.253 626.726 295.086 627.939 295.086C628.536 295.086 629.117 295.147 629.679 295.271C630.242 295.376 630.663 295.499 630.945 295.64C631.243 295.763 631.437 295.877 631.525 295.982C631.63 296.07 631.709 296.185 631.762 296.325C631.832 296.466 631.876 296.633 631.894 296.826C631.929 297.002 631.947 297.204 631.947 297.433ZM665.873 332L662.55 340.938C662.463 341.132 662.278 341.29 661.997 341.413C661.716 341.554 661.267 341.624 660.652 341.624C660.336 341.624 660.072 341.606 659.861 341.571C659.65 341.536 659.483 341.466 659.36 341.36C659.255 341.272 659.193 341.149 659.175 340.991C659.158 340.851 659.193 340.675 659.281 340.464L662.656 332C662.515 331.947 662.392 331.859 662.287 331.736C662.181 331.613 662.111 331.49 662.076 331.367L653.401 308.085C653.313 307.839 653.269 307.646 653.269 307.505C653.269 307.347 653.313 307.224 653.401 307.136C653.507 307.048 653.665 306.995 653.876 306.978C654.104 306.942 654.403 306.925 654.772 306.925C655.159 306.925 655.466 306.942 655.695 306.978C655.924 306.995 656.099 307.03 656.222 307.083C656.363 307.136 656.46 307.206 656.512 307.294C656.583 307.382 656.644 307.487 656.697 307.61L664.159 328.44H664.264L671.594 307.61C671.682 307.364 671.797 307.206 671.937 307.136C672.095 307.048 672.298 306.995 672.544 306.978C672.79 306.942 673.089 306.925 673.44 306.925C673.774 306.925 674.047 306.942 674.258 306.978C674.486 307.013 674.653 307.074 674.758 307.162C674.864 307.25 674.917 307.373 674.917 307.531C674.917 307.672 674.873 307.856 674.785 308.085L665.873 332ZM705.182 319.291C705.182 321.189 704.936 322.938 704.444 324.538C703.952 326.138 703.213 327.526 702.229 328.704C701.262 329.882 700.049 330.805 698.59 331.473C697.131 332.123 695.435 332.448 693.501 332.448C691.638 332.448 690.003 332.158 688.597 331.578C687.208 330.98 686.039 330.137 685.09 329.047C684.159 327.939 683.455 326.604 682.981 325.039C682.524 323.475 682.295 321.708 682.295 319.739C682.295 317.841 682.533 316.092 683.007 314.492C683.499 312.893 684.229 311.513 685.196 310.353C686.18 309.175 687.402 308.261 688.861 307.61C690.32 306.96 692.025 306.635 693.976 306.635C695.839 306.635 697.465 306.925 698.854 307.505C700.26 308.085 701.429 308.929 702.361 310.036C703.292 311.126 703.995 312.453 704.47 314.018C704.945 315.582 705.182 317.34 705.182 319.291ZM701.86 319.581C701.86 318.228 701.728 316.936 701.464 315.705C701.201 314.475 700.761 313.394 700.146 312.462C699.531 311.513 698.704 310.766 697.667 310.221C696.63 309.658 695.338 309.377 693.791 309.377C692.368 309.377 691.137 309.632 690.1 310.142C689.063 310.651 688.21 311.363 687.542 312.277C686.892 313.174 686.409 314.237 686.092 315.468C685.776 316.698 685.618 318.025 685.618 319.449C685.618 320.82 685.749 322.13 686.013 323.378C686.277 324.608 686.716 325.689 687.331 326.621C687.947 327.553 688.773 328.291 689.81 328.836C690.847 329.381 692.139 329.653 693.686 329.653C695.11 329.653 696.34 329.398 697.377 328.889C698.414 328.379 699.258 327.676 699.909 326.779C700.577 325.883 701.069 324.819 701.385 323.589C701.702 322.358 701.86 321.022 701.86 319.581ZM735.79 331.473C735.79 331.578 735.764 331.675 735.711 331.763C735.676 331.851 735.597 331.921 735.474 331.974C735.351 332.026 735.192 332.07 734.999 332.105C734.806 332.141 734.568 332.158 734.287 332.158C733.971 332.158 733.716 332.141 733.523 332.105C733.329 332.07 733.18 332.026 733.074 331.974C732.969 331.921 732.89 331.851 732.837 331.763C732.802 331.675 732.784 331.578 732.784 331.473V328.098C731.413 329.627 730.068 330.734 728.75 331.42C727.449 332.105 726.148 332.448 724.848 332.448C723.283 332.448 721.965 332.185 720.893 331.657C719.82 331.13 718.95 330.418 718.282 329.521C717.632 328.607 717.157 327.553 716.858 326.357C716.577 325.162 716.437 323.721 716.437 322.033V307.61C716.437 307.505 716.454 307.408 716.489 307.32C716.542 307.232 716.63 307.162 716.753 307.109C716.876 307.039 717.034 306.995 717.228 306.978C717.439 306.942 717.693 306.925 717.992 306.925C718.309 306.925 718.564 306.942 718.757 306.978C718.968 306.995 719.126 307.039 719.232 307.109C719.355 307.162 719.442 307.232 719.495 307.32C719.548 307.408 719.574 307.505 719.574 307.61V321.743C719.574 323.22 719.689 324.424 719.917 325.355C720.146 326.287 720.488 327.087 720.945 327.755C721.402 328.405 721.982 328.915 722.686 329.284C723.406 329.636 724.241 329.812 725.19 329.812C726.403 329.812 727.607 329.381 728.803 328.52C730.016 327.658 731.299 326.393 732.652 324.723V307.61C732.652 307.505 732.67 307.408 732.705 307.32C732.758 307.232 732.846 307.162 732.969 307.109C733.092 307.039 733.25 306.995 733.443 306.978C733.654 306.942 733.918 306.925 734.234 306.925C734.533 306.925 734.779 306.942 734.973 306.978C735.184 306.995 735.342 307.039 735.447 307.109C735.57 307.162 735.658 307.232 735.711 307.32C735.764 307.408 735.79 307.505 735.79 307.61V331.473ZM762.153 308.823C762.153 309.087 762.144 309.315 762.127 309.509C762.109 309.685 762.074 309.834 762.021 309.957C761.986 310.062 761.933 310.15 761.863 310.221C761.81 310.273 761.731 310.3 761.626 310.3C761.467 310.3 761.283 310.265 761.072 310.194C760.861 310.106 760.615 310.019 760.334 309.931C760.052 309.843 759.745 309.764 759.411 309.693C759.077 309.605 758.708 309.562 758.303 309.562C757.829 309.562 757.363 309.667 756.906 309.878C756.449 310.071 755.966 310.396 755.456 310.854C754.964 311.293 754.436 311.882 753.874 312.62C753.329 313.358 752.722 314.264 752.054 315.336V331.473C752.054 331.578 752.028 331.675 751.975 331.763C751.923 331.851 751.835 331.921 751.712 331.974C751.606 332.026 751.448 332.07 751.237 332.105C751.044 332.141 750.789 332.158 750.472 332.158C750.174 332.158 749.919 332.141 749.708 332.105C749.514 332.07 749.356 332.026 749.233 331.974C749.11 331.921 749.022 331.851 748.969 331.763C748.934 331.675 748.917 331.578 748.917 331.473V307.61C748.917 307.505 748.934 307.408 748.969 307.32C749.022 307.232 749.11 307.162 749.233 307.109C749.356 307.039 749.506 306.995 749.681 306.978C749.875 306.942 750.121 306.925 750.42 306.925C750.718 306.925 750.965 306.942 751.158 306.978C751.351 306.995 751.501 307.039 751.606 307.109C751.712 307.162 751.782 307.232 751.817 307.32C751.87 307.408 751.896 307.505 751.896 307.61V311.381C752.582 310.379 753.215 309.57 753.795 308.955C754.375 308.34 754.928 307.865 755.456 307.531C755.983 307.18 756.493 306.942 756.985 306.819C757.495 306.696 758.013 306.635 758.541 306.635C758.769 306.635 759.033 306.652 759.332 306.688C759.631 306.705 759.947 306.749 760.281 306.819C760.633 306.89 760.94 306.978 761.204 307.083C761.485 307.171 761.678 307.259 761.784 307.347C761.889 307.417 761.96 307.487 761.995 307.558C762.03 307.61 762.056 307.689 762.074 307.795C762.109 307.883 762.127 308.015 762.127 308.19C762.144 308.349 762.153 308.56 762.153 308.823ZM807.654 331.473C807.654 331.596 807.628 331.701 807.575 331.789C807.54 331.877 807.461 331.947 807.338 332C807.233 332.053 807.092 332.088 806.916 332.105C806.74 332.141 806.521 332.158 806.257 332.158C805.976 332.158 805.738 332.141 805.545 332.105C805.369 332.088 805.22 332.053 805.097 332C804.991 331.947 804.903 331.877 804.833 331.789C804.78 331.701 804.754 331.596 804.754 331.473V328.045C803.488 329.416 802.179 330.497 800.825 331.288C799.472 332.062 797.995 332.448 796.396 332.448C794.673 332.448 793.205 332.114 791.992 331.446C790.779 330.778 789.786 329.873 789.013 328.73C788.257 327.588 787.703 326.252 787.352 324.723C787 323.176 786.824 321.541 786.824 319.818C786.824 317.797 787.044 315.978 787.483 314.36C787.923 312.726 788.573 311.337 789.435 310.194C790.296 309.052 791.359 308.173 792.625 307.558C793.891 306.942 795.358 306.635 797.028 306.635C798.47 306.635 799.788 306.96 800.983 307.61C802.179 308.243 803.357 309.184 804.517 310.432V296.062C804.517 295.956 804.534 295.859 804.569 295.771C804.622 295.684 804.71 295.613 804.833 295.561C804.956 295.508 805.114 295.464 805.308 295.429C805.519 295.394 805.774 295.376 806.072 295.376C806.389 295.376 806.644 295.394 806.837 295.429C807.048 295.464 807.206 295.508 807.312 295.561C807.435 295.613 807.523 295.684 807.575 295.771C807.628 295.859 807.654 295.956 807.654 296.062V331.473ZM804.517 314.255C803.198 312.655 801.924 311.434 800.693 310.59C799.481 309.746 798.206 309.324 796.87 309.324C795.657 309.324 794.62 309.614 793.759 310.194C792.898 310.774 792.194 311.539 791.65 312.488C791.105 313.438 790.709 314.51 790.463 315.705C790.217 316.9 790.094 318.113 790.094 319.344C790.094 320.662 790.199 321.945 790.41 323.193C790.621 324.441 790.982 325.558 791.491 326.542C792.001 327.509 792.678 328.291 793.522 328.889C794.365 329.469 795.42 329.759 796.686 329.759C797.318 329.759 797.934 329.671 798.531 329.495C799.129 329.319 799.744 329.029 800.377 328.625C801.01 328.221 801.66 327.702 802.328 327.069C803.014 326.419 803.743 325.619 804.517 324.67V314.255ZM834.017 308.823C834.017 309.087 834.009 309.315 833.991 309.509C833.973 309.685 833.938 309.834 833.886 309.957C833.85 310.062 833.798 310.15 833.727 310.221C833.675 310.273 833.595 310.3 833.49 310.3C833.332 310.3 833.147 310.265 832.936 310.194C832.725 310.106 832.479 310.019 832.198 309.931C831.917 309.843 831.609 309.764 831.275 309.693C830.941 309.605 830.572 309.562 830.168 309.562C829.693 309.562 829.227 309.667 828.77 309.878C828.313 310.071 827.83 310.396 827.32 310.854C826.828 311.293 826.301 311.882 825.738 312.62C825.193 313.358 824.587 314.264 823.919 315.336V331.473C823.919 331.578 823.892 331.675 823.84 331.763C823.787 331.851 823.699 331.921 823.576 331.974C823.47 332.026 823.312 332.07 823.101 332.105C822.908 332.141 822.653 332.158 822.337 332.158C822.038 332.158 821.783 332.141 821.572 332.105C821.379 332.07 821.22 332.026 821.097 331.974C820.974 331.921 820.887 331.851 820.834 331.763C820.799 331.675 820.781 331.578 820.781 331.473V307.61C820.781 307.505 820.799 307.408 820.834 307.32C820.887 307.232 820.974 307.162 821.097 307.109C821.22 307.039 821.37 306.995 821.546 306.978C821.739 306.942 821.985 306.925 822.284 306.925C822.583 306.925 822.829 306.942 823.022 306.978C823.216 306.995 823.365 307.039 823.47 307.109C823.576 307.162 823.646 307.232 823.681 307.32C823.734 307.408 823.761 307.505 823.761 307.61V311.381C824.446 310.379 825.079 309.57 825.659 308.955C826.239 308.34 826.793 307.865 827.32 307.531C827.847 307.18 828.357 306.942 828.849 306.819C829.359 306.696 829.878 306.635 830.405 306.635C830.634 306.635 830.897 306.652 831.196 306.688C831.495 306.705 831.811 306.749 832.145 306.819C832.497 306.89 832.804 306.978 833.068 307.083C833.349 307.171 833.543 307.259 833.648 307.347C833.754 307.417 833.824 307.487 833.859 307.558C833.894 307.61 833.921 307.689 833.938 307.795C833.973 307.883 833.991 308.015 833.991 308.19C834.009 308.349 834.017 308.56 834.017 308.823ZM862.384 318.315C862.384 318.948 862.217 319.388 861.883 319.634C861.549 319.862 861.224 319.977 860.908 319.977H844.639C844.639 321.453 844.78 322.789 845.061 323.984C845.36 325.18 845.843 326.208 846.511 327.069C847.179 327.913 848.049 328.563 849.122 329.021C850.194 329.478 851.512 329.706 853.077 329.706C854.184 329.706 855.177 329.609 856.056 329.416C856.935 329.223 857.691 329.012 858.324 328.783C858.974 328.537 859.501 328.317 859.906 328.124C860.328 327.931 860.626 327.834 860.802 327.834C860.908 327.834 861.004 327.86 861.092 327.913C861.18 327.966 861.25 328.054 861.303 328.177C861.356 328.282 861.391 328.423 861.409 328.599C861.444 328.774 861.461 328.994 861.461 329.258C861.461 329.381 861.453 329.504 861.435 329.627C861.417 329.732 861.391 329.838 861.356 329.943C861.338 330.031 861.303 330.119 861.25 330.207C861.198 330.295 861.127 330.383 861.04 330.471C860.952 330.559 860.679 330.717 860.222 330.945C859.765 331.156 859.167 331.376 858.429 331.604C857.691 331.815 856.83 332.009 855.845 332.185C854.878 332.36 853.832 332.448 852.707 332.448C850.862 332.448 849.227 332.176 847.803 331.631C846.379 331.068 845.184 330.251 844.217 329.179C843.25 328.089 842.512 326.744 842.002 325.145C841.51 323.545 841.264 321.69 841.264 319.581C841.264 317.56 841.519 315.749 842.029 314.149C842.556 312.55 843.303 311.196 844.27 310.089C845.237 308.964 846.397 308.111 847.75 307.531C849.122 306.934 850.642 306.635 852.312 306.635C854.105 306.635 855.634 306.934 856.9 307.531C858.165 308.129 859.203 308.938 860.011 309.957C860.837 310.959 861.435 312.128 861.804 313.464C862.191 314.8 862.384 316.206 862.384 317.683V318.315ZM859.141 317.393C859.194 314.861 858.614 312.884 857.401 311.46C856.188 310.036 854.421 309.324 852.101 309.324C850.906 309.324 849.851 309.553 848.937 310.01C848.04 310.449 847.276 311.038 846.643 311.776C846.028 312.515 845.553 313.376 845.219 314.36C844.885 315.327 844.692 316.338 844.639 317.393H859.141ZM890.646 331.473C890.646 331.648 890.584 331.789 890.461 331.895C890.356 331.982 890.206 332.044 890.013 332.079C889.837 332.132 889.591 332.158 889.275 332.158C888.976 332.158 888.721 332.132 888.51 332.079C888.299 332.044 888.132 331.982 888.009 331.895C887.903 331.789 887.851 331.648 887.851 331.473V328.81C886.778 329.97 885.592 330.866 884.291 331.499C883.008 332.132 881.672 332.448 880.283 332.448C879.035 332.448 877.91 332.29 876.908 331.974C875.924 331.64 875.089 331.174 874.403 330.576C873.718 329.961 873.191 329.223 872.821 328.361C872.452 327.5 872.268 326.533 872.268 325.461C872.268 324.143 872.54 323 873.085 322.033C873.63 321.049 874.403 320.231 875.405 319.581C876.407 318.931 877.611 318.447 879.018 318.131C880.424 317.797 881.988 317.63 883.711 317.63H887.508V315.573C887.508 314.554 887.402 313.657 887.192 312.884C886.981 312.093 886.638 311.434 886.163 310.906C885.689 310.379 885.073 309.983 884.318 309.72C883.562 309.456 882.639 309.324 881.549 309.324C880.494 309.324 879.545 309.456 878.701 309.72C877.858 309.966 877.119 310.247 876.486 310.563C875.854 310.88 875.326 311.17 874.904 311.434C874.5 311.68 874.21 311.803 874.034 311.803C873.929 311.803 873.832 311.785 873.744 311.75C873.656 311.715 873.577 311.653 873.507 311.565C873.454 311.46 873.41 311.337 873.375 311.196C873.358 311.038 873.349 310.854 873.349 310.643C873.349 310.273 873.375 309.983 873.428 309.772C873.481 309.544 873.612 309.324 873.823 309.113C874.052 308.885 874.447 308.621 875.01 308.322C875.572 308.023 876.214 307.751 876.935 307.505C877.673 307.241 878.464 307.03 879.308 306.872C880.151 306.714 880.995 306.635 881.839 306.635C883.474 306.635 884.854 306.837 885.979 307.241C887.104 307.628 888.009 308.19 888.694 308.929C889.398 309.667 889.899 310.581 890.197 311.671C890.496 312.743 890.646 313.965 890.646 315.336V331.473ZM887.508 320.214H883.157C881.892 320.214 880.784 320.328 879.835 320.557C878.886 320.785 878.095 321.119 877.462 321.559C876.829 321.998 876.355 322.525 876.038 323.141C875.739 323.756 875.59 324.459 875.59 325.25C875.59 326.621 876.021 327.72 876.882 328.546C877.761 329.354 878.991 329.759 880.573 329.759C881.821 329.759 882.982 329.442 884.054 328.81C885.144 328.159 886.295 327.166 887.508 325.83V320.214ZM937.681 331.473C937.681 331.578 937.654 331.675 937.601 331.763C937.549 331.851 937.461 331.921 937.338 331.974C937.232 332.026 937.074 332.07 936.863 332.105C936.67 332.141 936.424 332.158 936.125 332.158C935.808 332.158 935.545 332.141 935.334 332.105C935.141 332.07 934.982 332.026 934.859 331.974C934.736 331.921 934.648 331.851 934.596 331.763C934.56 331.675 934.543 331.578 934.543 331.473V316.786C934.543 315.661 934.437 314.642 934.226 313.728C934.033 312.796 933.717 312.005 933.277 311.354C932.855 310.687 932.31 310.177 931.642 309.825C930.992 309.456 930.219 309.271 929.322 309.271C928.215 309.271 927.09 309.702 925.947 310.563C924.822 311.425 923.583 312.69 922.229 314.36V331.473C922.229 331.578 922.203 331.675 922.15 331.763C922.098 331.851 922.01 331.921 921.887 331.974C921.781 332.026 921.623 332.07 921.412 332.105C921.219 332.141 920.973 332.158 920.674 332.158C920.375 332.158 920.12 332.141 919.909 332.105C919.716 332.07 919.557 332.026 919.434 331.974C919.311 331.921 919.224 331.851 919.171 331.763C919.136 331.675 919.118 331.578 919.118 331.473V316.786C919.118 315.661 919.013 314.642 918.802 313.728C918.591 312.796 918.266 312.005 917.826 311.354C917.404 310.687 916.859 310.177 916.191 309.825C915.541 309.456 914.767 309.271 913.871 309.271C912.764 309.271 911.639 309.702 910.496 310.563C909.371 311.425 908.141 312.69 906.805 314.36V331.473C906.805 331.578 906.778 331.675 906.725 331.763C906.673 331.851 906.585 331.921 906.462 331.974C906.356 332.026 906.198 332.07 905.987 332.105C905.794 332.141 905.539 332.158 905.223 332.158C904.924 332.158 904.669 332.141 904.458 332.105C904.265 332.07 904.106 332.026 903.983 331.974C903.86 331.921 903.772 331.851 903.72 331.763C903.684 331.675 903.667 331.578 903.667 331.473V307.61C903.667 307.505 903.684 307.408 903.72 307.32C903.772 307.232 903.86 307.162 903.983 307.109C904.106 307.039 904.256 306.995 904.432 306.978C904.625 306.942 904.871 306.925 905.17 306.925C905.469 306.925 905.715 306.942 905.908 306.978C906.101 306.995 906.251 307.039 906.356 307.109C906.462 307.162 906.532 307.232 906.567 307.32C906.62 307.408 906.646 307.505 906.646 307.61V310.985C908.017 309.456 909.318 308.349 910.549 307.663C911.779 306.978 913.001 306.635 914.214 306.635C915.216 306.635 916.103 306.758 916.877 307.004C917.668 307.232 918.362 307.566 918.96 308.006C919.557 308.428 920.067 308.938 920.489 309.535C920.911 310.133 921.254 310.792 921.517 311.513C922.344 310.599 923.117 309.834 923.838 309.219C924.576 308.586 925.27 308.085 925.921 307.716C926.589 307.329 927.23 307.057 927.846 306.898C928.461 306.723 929.067 306.635 929.665 306.635C931.159 306.635 932.416 306.898 933.435 307.426C934.473 307.953 935.299 308.665 935.914 309.562C936.547 310.458 936.995 311.504 937.259 312.699C937.54 313.895 937.681 315.16 937.681 316.496V331.473ZM960.853 318.658C960.853 319.168 960.783 319.52 960.642 319.713C960.501 319.889 960.317 319.977 960.088 319.977H949.041C948.812 319.977 948.619 319.88 948.46 319.687C948.32 319.493 948.25 319.15 948.25 318.658C948.25 318.166 948.32 317.823 948.46 317.63C948.619 317.437 948.812 317.34 949.041 317.34H960.088C960.194 317.34 960.291 317.366 960.378 317.419C960.484 317.454 960.572 317.524 960.642 317.63C960.712 317.735 960.765 317.876 960.8 318.052C960.835 318.21 960.853 318.412 960.853 318.658Z" fill="white"/>
</svg>
