<svg width="776" height="257" viewBox="0 0 776 257" fill="none" xmlns="http://www.w3.org/2000/svg">
<path d="M119.894 0.899993L121.094 13.05L81.1939 94.65C81.1939 94.65 80.7439 95.55 79.8439 97.35C79.0439 99.05 78.1939 101.1 77.2939 103.5C76.4939 105.9 75.9939 108.2 75.7939 110.4H74.2939L70.994 99.75L119.894 0.899993ZM24.4939 97.05V108H7.84395V106.5C7.94395 106.5 8.34395 106.5 9.04395 106.5C9.84395 106.5 10.2439 106.5 10.2439 106.5C12.9439 106.5 15.3439 105.7 17.4439 104.1C19.5439 102.4 20.7939 100.05 21.1939 97.05H24.4939ZM29.5939 99.45C29.5939 99.55 29.5939 99.65 29.5939 99.75C29.5939 99.85 29.5939 100 29.5939 100.2C29.5939 101.8 30.1439 103.3 31.2439 104.7C32.4439 106 33.8439 106.65 35.4439 106.65H37.6939V108H28.5439V99.45H29.5939ZM32.8939 0.899993H34.2439L37.9939 11.85L28.8439 108H19.8439L32.8939 0.899993ZM34.2439 0.899993L79.3939 90L74.2939 110.4L31.0939 24L34.2439 0.899993ZM121.244 0.899993L134.594 108H118.694L110.744 24.45L119.894 0.899993H121.244ZM130.094 97.05H133.244C133.744 100.05 135.044 102.4 137.144 104.1C139.244 105.7 141.594 106.5 144.194 106.5C144.194 106.5 144.594 106.5 145.394 106.5C146.194 106.5 146.594 106.5 146.594 106.5V108H130.094V97.05ZM117.944 99.45H118.994V108H109.844V106.65H112.094C113.794 106.65 115.194 106 116.294 104.7C117.394 103.3 117.944 101.8 117.944 100.2C117.944 100 117.944 99.85 117.944 99.75C117.944 99.65 117.944 99.55 117.944 99.45ZM191.665 2.99999V108H177.715V2.99999H191.665ZM231.865 102.75L233.065 108H191.215V102.75H231.865ZM225.715 53.7V58.8H191.215V53.7H225.715ZM232.465 2.99999V8.25H191.215V2.99999H232.465ZM241.615 81.6L233.515 108H207.115L212.515 102.75C217.715 102.75 222.065 101.9 225.565 100.2C229.065 98.4 231.965 95.9 234.265 92.7C236.565 89.5 238.515 85.8 240.115 81.6H241.615ZM225.715 58.5V69.9H224.215V67.95C224.215 65.45 223.365 63.3 221.665 61.5C219.965 59.7 217.815 58.8 215.215 58.8V58.5H225.715ZM225.715 42.6V54H215.215V53.7C217.815 53.6 219.965 52.65 221.665 50.85C223.365 49.05 224.215 46.9 224.215 44.4V42.6H225.715ZM232.465 7.79999V21.6H230.965V19.2C230.965 16.1 229.915 13.5 227.815 11.4C225.815 9.3 223.215 8.2 220.015 8.1V7.79999H232.465ZM232.465 0.299992V4.65L214.165 2.99999C216.365 2.99999 218.665 2.84999 221.065 2.55C223.565 2.25 225.865 1.9 227.965 1.49999C230.065 1.09999 231.565 0.699993 232.465 0.299992ZM178.165 97.05V108H166.165V106.5C166.165 106.5 166.465 106.5 167.065 106.5C167.765 106.5 168.115 106.5 168.115 106.5C170.715 106.5 172.915 105.6 174.715 103.8C176.615 101.9 177.615 99.65 177.715 97.05H178.165ZM178.165 13.95H177.715C177.715 11.35 176.765 9.14999 174.865 7.35C172.965 5.44999 170.715 4.49999 168.115 4.49999C168.115 4.49999 167.815 4.49999 167.215 4.49999C166.615 4.49999 166.315 4.49999 166.315 4.49999L166.165 2.99999H178.165V13.95ZM290.203 2.99999V108H276.253V2.99999H290.203ZM330.403 102.75L331.603 108H289.753V102.75H330.403ZM340.153 81.6L332.053 108H305.653L311.053 102.75C316.253 102.75 320.603 101.9 324.103 100.2C327.603 98.4 330.503 95.9 332.803 92.7C335.103 89.5 337.053 85.8 338.653 81.6H340.153ZM276.703 97.05V108H264.703V106.5C264.703 106.5 265.003 106.5 265.603 106.5C266.303 106.5 266.653 106.5 266.653 106.5C269.253 106.5 271.453 105.6 273.253 103.8C275.153 101.9 276.153 99.65 276.253 97.05H276.703ZM276.703 13.95H276.253C276.153 11.35 275.153 9.14999 273.253 7.35C271.453 5.44999 269.253 4.49999 266.653 4.49999C266.653 4.49999 266.303 4.49999 265.603 4.49999C265.003 4.49999 264.703 4.49999 264.703 4.49999V2.99999H276.703V13.95ZM289.753 13.95V2.99999H301.753V4.49999C301.653 4.49999 301.303 4.49999 300.703 4.49999C300.103 4.49999 299.803 4.49999 299.803 4.49999C297.203 4.49999 294.953 5.44999 293.053 7.35C291.253 9.14999 290.303 11.35 290.203 13.95H289.753ZM385.956 2.99999V108H372.006V2.99999H385.956ZM372.456 97.05V108H360.456V106.5C360.456 106.5 360.756 106.5 361.356 106.5C362.056 106.5 362.406 106.5 362.406 106.5C365.006 106.5 367.206 105.6 369.006 103.8C370.906 101.9 371.906 99.65 372.006 97.05H372.456ZM372.456 13.95H372.006C371.906 11.35 370.906 9.14999 369.006 7.35C367.206 5.44999 365.006 4.49999 362.406 4.49999C362.406 4.49999 362.056 4.49999 361.356 4.49999C360.756 4.49999 360.456 4.49999 360.456 4.49999V2.99999H372.456V13.95ZM385.506 97.05H385.956C386.056 99.65 387.006 101.9 388.806 103.8C390.706 105.6 392.956 106.5 395.556 106.5C395.556 106.5 395.856 106.5 396.456 106.5C397.056 106.5 397.406 106.5 397.506 106.5V108H385.506V97.05ZM385.506 13.95V2.99999H397.506V4.49999C397.406 4.49999 397.056 4.49999 396.456 4.49999C395.856 4.49999 395.556 4.49999 395.556 4.49999C392.956 4.49999 390.706 5.44999 388.806 7.35C387.006 9.14999 386.056 11.35 385.956 13.95H385.506ZM477.904 0.899993C489.104 0.899993 498.854 3.14999 507.154 7.65C515.554 12.15 522.054 18.5 526.654 26.7C531.354 34.9 533.704 44.5 533.704 55.5C533.704 66.5 531.354 76.1 526.654 84.3C522.054 92.5 515.554 98.85 507.154 103.35C498.854 107.85 489.104 110.1 477.904 110.1C466.904 110.1 457.204 107.85 448.804 103.35C440.504 98.85 434.004 92.5 429.304 84.3C424.704 76.1 422.404 66.5 422.404 55.5C422.404 44.5 424.704 34.9 429.304 26.7C434.004 18.5 440.504 12.15 448.804 7.65C457.204 3.14999 466.904 0.899993 477.904 0.899993ZM477.904 105C486.004 105 493.004 102.95 498.904 98.85C504.804 94.75 509.404 89 512.704 81.6C516.004 74.2 517.654 65.5 517.654 55.5C517.654 45.5 516.004 36.8 512.704 29.4C509.404 22 504.804 16.25 498.904 12.15C493.004 8.05 486.004 6 477.904 6C470.004 6 463.054 8.05 457.054 12.15C451.154 16.25 446.554 22 443.254 29.4C439.954 36.8 438.304 45.5 438.304 55.5C438.304 65.5 439.954 74.2 443.254 81.6C446.554 89 451.154 94.75 457.054 98.85C463.054 102.95 470.004 105 477.904 105ZM580.059 2.99999H600.609C605.109 2.99999 609.309 3.59999 613.209 4.8C617.109 5.99999 620.409 7.79999 623.109 10.2C625.909 12.5 628.109 15.4 629.709 18.9C631.309 22.4 632.109 26.5 632.109 31.2C632.109 35.8 631.059 40.3 628.959 44.7C626.859 49 623.909 52.55 620.109 55.35C616.409 58.15 612.009 59.65 606.909 59.85C609.109 60.65 611.309 62.2 613.509 64.5C615.709 66.8 617.609 69.05 619.209 71.25C619.209 71.35 619.809 72.3 621.009 74.1C622.309 75.9 623.909 78.15 625.809 80.85C627.709 83.45 629.609 86.05 631.509 88.65C633.509 91.25 635.259 93.4 636.759 95.1C638.759 97.5 640.709 99.55 642.609 101.25C644.609 102.85 646.709 104.15 648.909 105.15C651.209 106.05 653.759 106.5 656.559 106.5V108H646.059C641.259 108 637.009 107.4 633.309 106.2C629.609 104.9 626.409 103.2 623.709 101.1C621.009 98.9 618.709 96.55 616.809 94.05C616.409 93.35 615.559 92.05 614.259 90.15C613.059 88.25 611.659 86.1 610.059 83.7C608.559 81.2 607.059 78.75 605.559 76.35C604.059 73.95 602.759 71.9 601.659 70.2C600.559 68.4 599.859 67.25 599.559 66.75C597.859 64.05 595.959 61.75 593.859 59.85C591.759 57.85 589.459 56.8 586.959 56.7V55.2C587.059 55.2 587.759 55.25 589.059 55.35C590.459 55.35 592.059 55.3 593.859 55.2C596.459 55.1 599.209 54.65 602.109 53.85C605.109 53.05 607.809 51.5 610.209 49.2C612.709 46.9 614.559 43.5 615.759 39C616.059 38 616.259 36.75 616.359 35.25C616.559 33.75 616.609 32.2 616.509 30.6C616.409 23.7 614.659 18.35 611.259 14.55C607.959 10.65 603.609 8.59999 598.209 8.39999C595.909 8.2 593.509 8.15 591.009 8.25C588.509 8.25 586.359 8.25 584.559 8.25C582.759 8.25 581.759 8.25 581.559 8.25C581.559 8.15 581.409 7.7 581.109 6.9C580.909 6 580.659 5.14999 580.359 4.34999C580.159 3.44999 580.059 2.99999 580.059 2.99999ZM582.009 2.99999V108H568.059V2.99999H582.009ZM568.509 97.05V108H556.509V106.5C556.509 106.5 556.809 106.5 557.409 106.5C558.109 106.5 558.459 106.5 558.459 106.5C561.059 106.5 563.259 105.6 565.059 103.8C566.959 101.9 567.959 99.65 568.059 97.05H568.509ZM568.509 13.95H568.059C567.959 11.35 566.959 9.14999 565.059 7.35C563.259 5.44999 561.059 4.49999 558.459 4.49999C558.459 4.49999 558.109 4.49999 557.409 4.49999C556.809 4.49999 556.509 4.49999 556.509 4.49999V2.99999H568.509V13.95ZM581.559 97.05H582.009C582.009 99.65 582.959 101.9 584.859 103.8C586.759 105.6 589.009 106.5 591.609 106.5C591.709 106.5 592.009 106.5 592.509 106.5C593.109 106.5 593.409 106.5 593.409 106.5V108H581.559V97.05ZM713.676 0.599997L759.726 107.1H742.176L708.726 19.8L713.676 0.599997ZM681.426 97.05C680.726 99.05 680.626 100.75 681.126 102.15C681.626 103.55 682.426 104.65 683.526 105.45C684.726 106.15 685.926 106.5 687.126 106.5H688.476V108H657.726V106.5C657.726 106.5 657.976 106.5 658.476 106.5C658.876 106.5 659.076 106.5 659.076 106.5C661.376 106.5 663.726 105.8 666.126 104.4C668.626 102.9 670.676 100.45 672.276 97.05H681.426ZM713.676 0.599997L714.876 13.65L677.376 107.55H667.626L706.176 17.4C706.276 17.2 706.626 16.45 707.226 15.15C707.926 13.75 708.626 12.1 709.326 10.2C710.126 8.3 710.826 6.45 711.426 4.65C712.026 2.85 712.326 1.5 712.326 0.599997H713.676ZM733.026 68.85V73.95H687.126V68.85H733.026ZM738.276 97.05H755.226C756.826 100.45 758.826 102.9 761.226 104.4C763.726 105.8 766.126 106.5 768.426 106.5C768.426 106.5 768.626 106.5 769.026 106.5C769.426 106.5 769.626 106.5 769.626 106.5V108H731.226V106.5H732.576C734.576 106.5 736.326 105.7 737.826 104.1C739.326 102.4 739.476 100.05 738.276 97.05ZM24.5799 157V255H11.5599V157H24.5799ZM62.0999 250.1L63.2199 255H24.1599V250.1H62.0999ZM71.1999 230.36L63.6399 255H38.9999L44.0399 250.1C48.8932 250.1 52.9532 249.307 56.2199 247.72C59.4866 246.04 62.1932 243.707 64.3399 240.72C66.4866 237.733 68.3066 234.28 69.7999 230.36H71.1999ZM11.9799 244.78V255H0.77991V253.6C0.77991 253.6 1.05991 253.6 1.61991 253.6C2.27324 253.6 2.59991 253.6 2.59991 253.6C5.02658 253.6 7.07991 252.76 8.75991 251.08C10.5332 249.307 11.4666 247.207 11.5599 244.78H11.9799ZM11.9799 167.22H11.5599C11.4666 164.793 10.5332 162.74 8.75991 161.06C7.07991 159.287 5.02658 158.4 2.59991 158.4C2.59991 158.4 2.27324 158.4 1.61991 158.4C1.05991 158.4 0.77991 158.4 0.77991 158.4V157H11.9799V167.22ZM24.1599 167.22V157H35.3599V158.4C35.2666 158.4 34.9399 158.4 34.3799 158.4C33.8199 158.4 33.5399 158.4 33.5399 158.4C31.1132 158.4 29.0132 159.287 27.2399 161.06C25.5599 162.74 24.6732 164.793 24.5799 167.22H24.1599ZM113.95 157V255H100.93V157H113.95ZM101.35 244.78V255H90.1502V253.6C90.1502 253.6 90.4302 253.6 90.9902 253.6C91.6435 253.6 91.9702 253.6 91.9702 253.6C94.3969 253.6 96.4502 252.76 98.1302 251.08C99.9035 249.307 100.837 247.207 100.93 244.78H101.35ZM101.35 167.22H100.93C100.837 164.793 99.9035 162.74 98.1302 161.06C96.4502 159.287 94.3969 158.4 91.9702 158.4C91.9702 158.4 91.6435 158.4 90.9902 158.4C90.4302 158.4 90.1502 158.4 90.1502 158.4V157H101.35V167.22ZM113.53 244.78H113.95C114.044 247.207 114.93 249.307 116.61 251.08C118.384 252.76 120.484 253.6 122.91 253.6C122.91 253.6 123.19 253.6 123.75 253.6C124.31 253.6 124.637 253.6 124.73 253.6V255H113.53V244.78ZM113.53 167.22V157H124.73V158.4C124.637 158.4 124.31 158.4 123.75 158.4C123.19 158.4 122.91 158.4 122.91 158.4C120.484 158.4 118.384 159.287 116.61 161.06C114.93 162.74 114.044 164.793 113.95 167.22H113.53ZM173.242 157V255H160.222V157H173.242ZM205.022 204.32V209.08H172.822V204.32H205.022ZM211.322 157V161.9H172.822V157H211.322ZM205.022 208.8V219.44H203.622V217.62C203.622 215.287 202.829 213.28 201.242 211.6C199.656 209.92 197.649 209.08 195.222 209.08V208.8H205.022ZM205.022 193.96V204.6H195.222V204.32C197.649 204.227 199.656 203.34 201.242 201.66C202.829 199.98 203.622 197.973 203.622 195.64V193.96H205.022ZM211.322 161.48V172.96H209.922V171C209.922 168.387 209.036 166.24 207.262 164.56C205.582 162.787 203.436 161.9 200.822 161.9V161.48H211.322ZM211.322 154.48V158.54L194.242 157C196.296 157 198.442 156.86 200.682 156.58C203.016 156.3 205.162 155.973 207.122 155.6C209.082 155.227 210.482 154.853 211.322 154.48ZM160.642 244.78V255H149.442V253.6C149.442 253.6 149.722 253.6 150.282 253.6C150.936 253.6 151.262 253.6 151.262 253.6C153.689 253.6 155.742 252.76 157.422 251.08C159.196 249.307 160.129 247.207 160.222 244.78H160.642ZM160.642 167.22H160.222C160.222 164.793 159.336 162.74 157.562 161.06C155.789 159.287 153.689 158.4 151.262 158.4C151.262 158.4 150.982 158.4 150.422 158.4C149.862 158.4 149.582 158.4 149.582 158.4L149.442 157H160.642V167.22ZM172.822 244.78H173.242C173.336 247.207 174.222 249.307 175.902 251.08C177.676 252.76 179.776 253.6 182.202 253.6C182.202 253.6 182.482 253.6 183.042 253.6C183.602 253.6 183.929 253.6 184.022 253.6V255H172.822V244.78ZM261.246 157V255H248.226V157H261.246ZM298.766 250.1L299.886 255H260.826V250.1H298.766ZM293.026 204.32V209.08H260.826V204.32H293.026ZM299.326 157V161.9H260.826V157H299.326ZM307.866 230.36L300.306 255H275.666L280.706 250.1C285.559 250.1 289.619 249.307 292.886 247.72C296.152 246.04 298.859 243.707 301.006 240.72C303.152 237.733 304.972 234.28 306.466 230.36H307.866ZM293.026 208.8V219.44H291.626V217.62C291.626 215.287 290.832 213.28 289.246 211.6C287.659 209.92 285.652 209.08 283.226 209.08V208.8H293.026ZM293.026 193.96V204.6H283.226V204.32C285.652 204.227 287.659 203.34 289.246 201.66C290.832 199.98 291.626 197.973 291.626 195.64V193.96H293.026ZM299.326 161.48V174.36H297.926V172.12C297.926 169.227 296.946 166.8 294.986 164.84C293.119 162.88 290.692 161.853 287.706 161.76V161.48H299.326ZM299.326 154.48V158.54L282.246 157C284.299 157 286.446 156.86 288.686 156.58C291.019 156.3 293.166 155.973 295.126 155.6C297.086 155.227 298.486 154.853 299.326 154.48ZM248.646 244.78V255H237.446V253.6C237.446 253.6 237.726 253.6 238.286 253.6C238.939 253.6 239.266 253.6 239.266 253.6C241.692 253.6 243.746 252.76 245.426 251.08C247.199 249.307 248.132 247.207 248.226 244.78H248.646ZM248.646 167.22H248.226C248.226 164.793 247.339 162.74 245.566 161.06C243.792 159.287 241.692 158.4 239.266 158.4C239.266 158.4 238.986 158.4 238.426 158.4C237.866 158.4 237.586 158.4 237.586 158.4L237.446 157H248.646V167.22ZM359.347 155.04C360.934 155.04 362.754 155.133 364.807 155.32C366.861 155.507 368.914 155.787 370.967 156.16C373.114 156.44 374.981 156.767 376.567 157.14C378.247 157.42 379.461 157.747 380.207 158.12L379.647 174.78H378.387C378.387 170.207 376.754 166.567 373.487 163.86C370.221 161.153 366.114 159.8 361.167 159.8C355.941 159.8 351.694 161.34 348.427 164.42C345.254 167.407 343.667 170.953 343.667 175.06C343.574 177.113 344.087 179.307 345.207 181.64C346.421 183.88 348.241 185.98 350.667 187.94L377.967 210.76C381.234 213.28 383.521 216.22 384.827 219.58C386.227 222.847 386.881 226.253 386.787 229.8C386.601 238.013 383.847 244.593 378.527 249.54C373.207 254.487 366.021 256.96 356.967 256.96C354.074 256.96 350.947 256.68 347.587 256.12C344.321 255.56 341.241 254.72 338.347 253.6C335.454 252.387 333.121 250.847 331.347 248.98C330.881 247.3 330.647 245.247 330.647 242.82C330.741 240.3 331.021 237.733 331.487 235.12C332.047 232.507 332.747 230.173 333.587 228.12H334.847C334.381 232.88 335.034 237.127 336.807 240.86C338.674 244.593 341.334 247.487 344.787 249.54C348.334 251.5 352.394 252.387 356.967 252.2C362.474 252.013 367.001 250.333 370.547 247.16C374.187 243.893 376.007 239.647 376.007 234.42C376.007 231.713 375.401 229.24 374.187 227C372.974 224.76 371.107 222.753 368.587 220.98L342.547 198.86C339.001 196.247 336.481 193.167 334.987 189.62C333.494 186.073 332.841 182.527 333.027 178.98C333.214 174.78 334.334 170.86 336.387 167.22C338.441 163.487 341.381 160.547 345.207 158.4C349.127 156.16 353.841 155.04 359.347 155.04ZM380.207 156.44V159.38H367.607V156.44H380.207ZM454.938 157.42V255H441.918V157.42H454.938ZM490.358 156.86V161.62H406.498V156.86H490.358ZM490.358 161.2V174.22L488.958 174.08V171.98C488.958 168.993 487.978 166.567 486.018 164.7C484.151 162.74 481.724 161.713 478.738 161.62V161.2H490.358ZM490.358 154.34V158.4L473.278 156.86C475.331 156.86 477.478 156.72 479.718 156.44C482.051 156.16 484.198 155.833 486.158 155.46C488.118 155.087 489.518 154.713 490.358 154.34ZM442.338 244.78V255H431.138V253.6C431.138 253.6 431.418 253.6 431.978 253.6C432.631 253.6 432.958 253.6 432.958 253.6C435.384 253.6 437.438 252.76 439.118 251.08C440.891 249.307 441.824 247.207 441.918 244.78H442.338ZM454.518 244.78H454.938C455.031 247.207 455.918 249.307 457.598 251.08C459.371 252.76 461.471 253.6 463.898 253.6C463.898 253.6 464.178 253.6 464.738 253.6C465.391 253.6 465.718 253.6 465.718 253.6V255H454.518V244.78ZM418.118 161.2V161.62C415.131 161.713 412.658 162.74 410.698 164.7C408.831 166.567 407.898 168.993 407.898 171.98V174.08L406.498 174.22V161.2H418.118ZM406.498 154.34C407.431 154.713 408.831 155.087 410.698 155.46C412.658 155.833 414.804 156.16 417.138 156.44C419.471 156.72 421.618 156.86 423.578 156.86L406.498 158.4V154.34ZM527.815 157.14L555.675 208.52L545.035 212.44L511.855 157.14H527.815ZM557.215 209.92V255H544.195V209.92H557.215ZM581.295 157.14H590.675L556.095 212.86L550.355 211.32L581.295 157.14ZM575.555 167.08C576.395 165.773 576.629 164.467 576.255 163.16C575.882 161.76 575.182 160.64 574.155 159.8C573.129 158.867 571.962 158.4 570.655 158.4C570.655 158.4 570.375 158.4 569.815 158.4C569.255 158.4 568.975 158.4 568.975 158.4V157H600.895V158.4H598.935C596.042 158.4 593.335 159.24 590.815 160.92C588.295 162.6 586.289 164.513 584.795 166.66L575.555 167.08ZM533.135 167.08L517.455 166.66C516.149 164.513 514.235 162.6 511.715 160.92C509.195 159.24 506.442 158.4 503.455 158.4H501.495V157H539.855V158.4C539.855 158.4 539.529 158.4 538.875 158.4C538.315 158.4 538.035 158.4 538.035 158.4C535.982 158.4 534.395 159.38 533.275 161.34C532.249 163.207 532.202 165.12 533.135 167.08ZM544.475 244.78V255H533.415V253.6C533.415 253.6 533.695 253.6 534.255 253.6C534.815 253.6 535.142 253.6 535.235 253.6C537.662 253.6 539.715 252.76 541.395 251.08C543.169 249.307 544.102 247.207 544.195 244.78H544.475ZM556.795 244.78H557.215C557.215 247.207 558.102 249.307 559.875 251.08C561.649 252.76 563.749 253.6 566.175 253.6C566.175 253.6 566.455 253.6 567.015 253.6C567.575 253.6 567.855 253.6 567.855 253.6V255H556.795V244.78ZM639.508 157V255H626.488V157H639.508ZM677.028 250.1L678.148 255H639.088V250.1H677.028ZM686.128 230.36L678.568 255H653.928L658.968 250.1C663.821 250.1 667.881 249.307 671.148 247.72C674.415 246.04 677.121 243.707 679.268 240.72C681.415 237.733 683.235 234.28 684.728 230.36H686.128ZM626.908 244.78V255H615.708V253.6C615.708 253.6 615.988 253.6 616.548 253.6C617.201 253.6 617.528 253.6 617.528 253.6C619.955 253.6 622.008 252.76 623.688 251.08C625.461 249.307 626.395 247.207 626.488 244.78H626.908ZM626.908 167.22H626.488C626.395 164.793 625.461 162.74 623.688 161.06C622.008 159.287 619.955 158.4 617.528 158.4C617.528 158.4 617.201 158.4 616.548 158.4C615.988 158.4 615.708 158.4 615.708 158.4V157H626.908V167.22ZM639.088 167.22V157H650.288V158.4C650.195 158.4 649.868 158.4 649.308 158.4C648.748 158.4 648.468 158.4 648.468 158.4C646.041 158.4 643.941 159.287 642.168 161.06C640.488 162.74 639.601 164.793 639.508 167.22H639.088ZM728.878 157V255H715.858V157H728.878ZM766.398 250.1L767.518 255H728.458V250.1H766.398ZM760.658 204.32V209.08H728.458V204.32H760.658ZM766.958 157V161.9H728.458V157H766.958ZM775.498 230.36L767.938 255H743.298L748.338 250.1C753.192 250.1 757.252 249.307 760.518 247.72C763.785 246.04 766.492 243.707 768.638 240.72C770.785 237.733 772.605 234.28 774.098 230.36H775.498ZM760.658 208.8V219.44H759.258V217.62C759.258 215.287 758.465 213.28 756.878 211.6C755.292 209.92 753.285 209.08 750.858 209.08V208.8H760.658ZM760.658 193.96V204.6H750.858V204.32C753.285 204.227 755.292 203.34 756.878 201.66C758.465 199.98 759.258 197.973 759.258 195.64V193.96H760.658ZM766.958 161.48V174.36H765.558V172.12C765.558 169.227 764.578 166.8 762.618 164.84C760.752 162.88 758.325 161.853 755.338 161.76V161.48H766.958ZM766.958 154.48V158.54L749.878 157C751.932 157 754.078 156.86 756.318 156.58C758.652 156.3 760.798 155.973 762.758 155.6C764.718 155.227 766.118 154.853 766.958 154.48ZM716.278 244.78V255H705.078V253.6C705.078 253.6 705.358 253.6 705.918 253.6C706.572 253.6 706.898 253.6 706.898 253.6C709.325 253.6 711.378 252.76 713.058 251.08C714.832 249.307 715.765 247.207 715.858 244.78H716.278ZM716.278 167.22H715.858C715.858 164.793 714.972 162.74 713.198 161.06C711.425 159.287 709.325 158.4 706.898 158.4C706.898 158.4 706.618 158.4 706.058 158.4C705.498 158.4 705.218 158.4 705.218 158.4L705.078 157H716.278V167.22Z" fill="#474747"/>
</svg>
