<svg width="247" height="131" viewBox="0 0 247 131" fill="none" xmlns="http://www.w3.org/2000/svg">
<path d="M88.8836 2.09999C90.7503 2.36666 92.0169 2.93333 92.6836 3.8C93.4169 4.66666 93.7836 5.8 93.7836 7.19999C93.7836 11.8 91.3169 13.9333 86.3836 13.6L82.8836 13.3C78.9503 12.9667 75.0169 12.7 71.0836 12.5C67.2169 12.3 63.1503 12.2 58.8836 12.2H54.3836C53.5836 22.0667 52.7503 31.0667 51.8836 39.2L69.0836 38.9C71.5503 38.9 73.1836 39.3333 73.9836 40.2C74.8503 41.0667 75.2836 42.2333 75.2836 43.7C75.2836 45.9667 74.6169 47.7667 73.2836 49.1C71.9503 50.3667 70.0503 51 67.5836 51H50.4836L49.8836 55.3C48.4836 66.3 45.4836 74.1333 40.8836 78.8C36.3503 83.4667 30.0836 85.8 22.0836 85.8C17.5503 85.8 13.3836 84.8333 9.58359 82.9C5.78359 80.9 2.98359 78.5 1.18359 75.7C0.45026 74.5667 0.0835937 73.2 0.0835937 71.6C0.0835937 70 0.45026 68.6 1.18359 67.4C1.98359 66.2 2.95026 65.6 4.08359 65.6C4.88359 65.6 5.65026 65.8667 6.38359 66.4C7.18359 66.9333 8.18359 67.9667 9.38359 69.5C12.5836 73.7 16.5503 75.8 21.2836 75.8C25.0836 75.8 28.2503 74.2667 30.7836 71.2C33.3836 68.0667 35.0503 63.1667 35.7836 56.5L36.3836 51H31.5836C30.0503 51 28.7169 50.5667 27.5836 49.7C26.5169 48.8333 25.9836 47.6 25.9836 46C25.9836 43.9333 26.5169 42.3667 27.5836 41.3C28.6503 40.1667 30.2169 39.6 32.2836 39.6C34.1503 39.6 35.9836 39.5667 37.7836 39.5C38.5836 32.1667 39.4503 23.2667 40.3836 12.8C33.1836 13.4667 28.1169 14.6333 25.1836 16.3C22.2503 17.9667 20.7836 20.4333 20.7836 23.7C20.7836 25.9667 21.4503 28.1333 22.7836 30.2C23.1836 30.8 23.3836 31.4 23.3836 32C23.3836 33.2 22.7169 34.2667 21.3836 35.2C20.0503 36.0667 18.5503 36.5 16.8836 36.5C15.0836 36.5 13.5503 35.9667 12.2836 34.9C11.4836 34.2333 10.7169 32.8667 9.98359 30.8C9.25026 28.7333 8.88359 26.4333 8.88359 23.9C8.88359 15.6333 13.1169 9.63333 21.5836 5.9C30.1169 2.16666 42.5503 0.299994 58.8836 0.299994C70.2169 0.299994 80.2169 0.899994 88.8836 2.09999ZM83.275 85.5C80.7417 85.5 78.9417 84.1667 77.875 81.5C76.875 78.8333 76.375 74.5667 76.375 68.7C76.375 60.0333 77.6083 51.8 80.075 44C80.675 42.0667 81.6417 40.6667 82.975 39.8C84.375 38.8667 86.3083 38.4 88.775 38.4C90.1083 38.4 91.0417 38.5667 91.575 38.9C92.1083 39.2333 92.375 39.8667 92.375 40.8C92.375 41.8667 91.875 44.2667 90.875 48C90.2083 50.6667 89.675 53 89.275 55C88.875 57 88.5417 59.4667 88.275 62.4C90.475 56.6667 92.9417 52 95.675 48.4C98.4083 44.8 101.075 42.2333 103.675 40.7C106.342 39.1667 108.775 38.4 110.975 38.4C115.308 38.4 117.475 40.5667 117.475 44.9C117.475 45.7667 117.175 47.8667 116.575 51.2C116.042 53.8667 115.775 55.5333 115.775 56.2C115.775 58.5333 116.608 59.7 118.275 59.7C120.142 59.7 122.542 58.2333 125.475 55.3C126.342 54.4333 127.242 54 128.175 54C129.042 54 129.708 54.4 130.175 55.2C130.708 55.9333 130.975 56.9333 130.975 58.2C130.975 60.6667 130.308 62.6 128.975 64C127.108 65.9333 124.908 67.6 122.375 69C119.908 70.3333 117.275 71 114.475 71C110.942 71 108.242 70.1 106.375 68.3C104.575 66.5 103.675 64.0667 103.675 61C103.675 60 103.775 59 103.975 58C104.108 56.6667 104.175 55.7667 104.175 55.3C104.175 54.2333 103.808 53.7 103.075 53.7C102.075 53.7 100.742 54.8333 99.075 57.1C97.475 59.3 95.875 62.2333 94.275 65.9C92.675 69.5667 91.375 73.4333 90.375 77.5C89.6417 80.6333 88.775 82.7667 87.775 83.9C86.8417 84.9667 85.3417 85.5 83.275 85.5ZM166.283 62.7C167.149 62.7 167.816 63.1 168.283 63.9C168.816 64.7 169.083 65.8 169.083 67.2C169.083 69.8667 168.449 71.9333 167.183 73.4C164.716 76.4 161.216 79.1667 156.683 81.7C152.216 84.2333 147.416 85.5 142.283 85.5C135.283 85.5 129.849 83.6 125.983 79.8C122.116 76 120.183 70.8 120.183 64.2C120.183 59.6 121.149 55.3333 123.083 51.4C125.016 47.4 127.683 44.2333 131.083 41.9C134.549 39.5667 138.449 38.4 142.783 38.4C146.649 38.4 149.749 39.5667 152.083 41.9C154.416 44.1667 155.583 47.2667 155.583 51.2C155.583 55.8 153.916 59.7667 150.583 63.1C147.316 66.3667 141.749 68.9667 133.883 70.9C135.549 73.9667 138.716 75.5 143.383 75.5C146.383 75.5 149.783 74.4667 153.583 72.4C157.449 70.2667 160.783 67.5 163.583 64.1C164.383 63.1667 165.283 62.7 166.283 62.7ZM141.083 48.2C138.616 48.2 136.516 49.6333 134.783 52.5C133.116 55.3667 132.283 58.8333 132.283 62.9V63.1C136.216 62.1667 139.316 60.7667 141.583 58.9C143.849 57.0333 144.983 54.8667 144.983 52.4C144.983 51.1333 144.616 50.1333 143.883 49.4C143.216 48.6 142.283 48.2 141.083 48.2ZM212.141 62.9C213.007 62.9 213.674 63.3333 214.141 64.2C214.674 65 214.941 66.0333 214.941 67.3C214.941 68.8333 214.707 70.0333 214.241 70.9C213.774 71.7667 213.041 72.5333 212.041 73.2L192.841 86.1C190.307 99.9 186.974 110.733 182.841 118.6C178.774 126.533 173.574 130.5 167.241 130.5C163.841 130.5 161.074 129.433 158.941 127.3C156.807 125.233 155.741 122.5 155.741 119.1C155.741 115.967 156.441 112.767 157.841 109.5C159.307 106.233 161.974 102.467 165.841 98.2C169.774 94 175.307 89.1667 182.441 83.7L182.741 81.4C183.207 78.9333 183.741 75.4 184.341 70.8C183.007 75.6 181.141 79.2667 178.741 81.8C176.341 84.2667 173.807 85.5 171.141 85.5C168.141 85.5 165.674 84.1333 163.741 81.4C161.874 78.6 160.941 75.1333 160.941 71C160.941 66 161.274 61.4333 161.941 57.3C162.607 53.1 163.707 48.6667 165.241 44C165.907 42 166.841 40.5667 168.041 39.7C169.241 38.8333 171.141 38.4 173.741 38.4C175.207 38.4 176.207 38.6333 176.741 39.1C177.341 39.5667 177.641 40.2667 177.641 41.2C177.641 41.7333 177.274 43.5333 176.541 46.6C175.874 49.0667 175.341 51.3 174.941 53.3C174.407 56.0333 173.941 58.6667 173.541 61.2C173.141 63.6667 172.941 65.7 172.941 67.3C172.941 69.8333 173.641 71.1 175.041 71.1C176.041 71.1 177.274 70.1 178.741 68.1C180.274 66.1 181.874 63.0667 183.541 59C185.274 54.9333 186.941 49.9333 188.541 44C189.074 42 189.874 40.5667 190.941 39.7C192.074 38.8333 193.741 38.4 195.941 38.4C197.474 38.4 198.541 38.6 199.141 39C199.741 39.4 200.041 40.0667 200.041 41C200.041 42.6667 199.174 48.4 197.441 58.2L194.841 74.3C199.974 70.4333 204.974 66.9 209.841 63.7C210.707 63.1667 211.474 62.9 212.141 62.9ZM168.341 120.8C170.007 120.8 171.874 118.867 173.941 115C176.007 111.133 178.074 104.7 180.141 95.7C175.007 100.033 171.274 103.967 168.941 107.5C166.674 111.1 165.541 114.233 165.541 116.9C165.541 118.033 165.741 118.967 166.141 119.7C166.607 120.433 167.341 120.8 168.341 120.8ZM219.316 85.5C215.516 85.5 212.416 84 210.016 81C207.682 78 206.516 74.0667 206.516 69.2C206.516 63.8667 207.749 58.8333 210.216 54.1C212.682 49.3 215.949 45.4667 220.016 42.6C224.149 39.6667 228.516 38.2 233.116 38.2C234.582 38.2 235.549 38.5 236.016 39.1C236.549 39.6333 236.982 40.6333 237.316 42.1C238.582 41.8333 239.982 41.7 241.516 41.7C243.116 41.7 244.349 42.1 245.216 42.9C246.082 43.7 246.516 44.8333 246.516 46.3C246.516 47.8333 246.182 50.5 245.516 54.3C244.782 58.3667 244.216 62.2667 243.816 66C243.416 69.6667 243.216 73.8 243.216 78.4C243.216 80.9333 242.682 82.7667 241.616 83.9C240.616 84.9667 238.949 85.5 236.616 85.5C234.349 85.5 232.649 84.9667 231.516 83.9C230.449 82.7667 229.916 80.9667 229.916 78.5L230.016 76.9C227.949 82.6333 224.382 85.5 219.316 85.5ZM223.216 75.4C225.082 75.4 226.782 74.1 228.316 71.5C229.849 68.9 231.216 64.2667 232.416 57.6L234.316 47.5C231.582 47.5667 229.049 48.6333 226.716 50.7C224.382 52.7 222.516 55.3667 221.116 58.7C219.716 62.0333 219.016 65.5667 219.016 69.3C219.016 71.3 219.382 72.8333 220.116 73.9C220.916 74.9 221.949 75.4 223.216 75.4Z" fill="white"/>
</svg>
